<?xml version="1.0" standalone="no"?>
<!DOCTYPE svg PUBLIC "-//W3C//DTD SVG 20010904//EN"
 "http://www.w3.org/TR/2001/REC-SVG-20010904/DTD/svg10.dtd">
<svg version="1.0" xmlns="http://www.w3.org/2000/svg"
 width="600.000000pt" height="600.000000pt" viewBox="0 0 600.000000 600.000000"
 preserveAspectRatio="xMidYMid meet">
<g transform="translate(0.000000,600.000000) scale(0.100000,-0.100000)"
fill="#000000" stroke="none">
<path d="M2855 5828 c-110 -3 -211 -10 -225 -13 -42 -11 -62 -15 -125 -25 -33
-5 -103 -21 -155 -35 -52 -15 -106 -29 -120 -32 -14 -3 -29 -9 -35 -13 -5 -5
-39 -16 -74 -25 -36 -9 -74 -23 -85 -31 -11 -8 -27 -14 -34 -14 -20 0 -295
-122 -304 -135 -4 -5 -8 -6 -8 -1 0 5 -11 -3 -25 -17 -14 -13 -40 -31 -58 -38
-17 -7 -34 -16 -37 -20 -3 -3 -18 -14 -35 -23 -16 -9 -45 -28 -64 -42 -19 -13
-36 -22 -39 -20 -2 3 -16 -9 -29 -25 -14 -16 -37 -36 -52 -43 -14 -8 -35 -22
-47 -33 -47 -41 -141 -123 -163 -142 -13 -12 -28 -21 -33 -21 -4 0 -8 -7 -8
-17 0 -9 -3 -14 -6 -10 -8 7 -44 -24 -44 -39 0 -6 -11 -16 -25 -22 -14 -6 -24
-15 -23 -19 2 -5 -28 -39 -65 -76 -37 -38 -67 -73 -67 -79 0 -6 -7 -8 -14 -5
-10 4 -13 1 -9 -9 3 -7 1 -14 -4 -14 -5 0 -19 -18 -32 -40 -13 -24 -27 -37
-33 -34 -7 5 -9 1 -5 -9 3 -8 -1 -21 -9 -28 -21 -17 -114 -159 -105 -159 11 0
61 65 61 79 0 6 4 11 8 11 4 0 16 13 25 30 10 16 23 35 30 42 7 7 25 31 42 53
79 107 354 382 475 476 395 307 750 467 1250 564 113 22 174 27 372 32 303 7
557 -18 753 -73 249 -70 372 -116 579 -220 281 -141 593 -379 777 -595 68 -79
130 -142 134 -137 3 2 -11 20 -30 38 -19 19 -35 38 -35 43 0 4 -30 38 -66 75
-36 37 -73 79 -82 95 -9 15 -19 27 -23 27 -3 0 -26 19 -50 43 -25 23 -61 54
-80 69 -19 16 -65 53 -104 84 -38 32 -101 77 -138 101 -37 24 -66 47 -63 51 2
4 -4 9 -15 9 -10 1 -26 9 -35 17 -8 9 -20 16 -26 16 -17 0 -69 41 -63 50 3 5
1 11 -4 14 -5 4 -12 2 -16 -3 -3 -6 -12 -8 -20 -5 -8 4 -13 9 -10 13 2 4 -1 8
-8 8 -7 0 -43 15 -82 33 -38 17 -93 43 -122 56 -28 13 -57 24 -63 24 -6 0 -21
5 -33 12 -12 7 -28 13 -35 14 -8 1 -21 6 -30 10 -9 4 -23 8 -31 10 -8 1 -17 6
-20 11 -3 4 -10 8 -16 8 -5 1 -30 7 -55 14 -55 16 -77 22 -114 28 -15 3 -23 9
-17 12 6 4 -6 8 -27 9 -20 1 -46 4 -57 6 -11 3 -26 5 -33 5 -7 1 -11 4 -8 9 2
4 -17 7 -42 6 -26 0 -51 2 -57 6 -10 7 -262 32 -350 34 -27 1 -140 -2 -250 -6z"/>
<path d="M2976 5783 c-33 -2 -69 -11 -80 -19 -20 -15 -18 -15 24 -9 69 11 310
14 365 5 28 -5 97 -16 155 -26 101 -16 229 -46 335 -77 57 -17 155 -47 170
-51 6 -2 45 -19 88 -40 43 -20 82 -36 87 -36 17 0 291 -147 312 -168 7 -7 17
-12 24 -12 7 0 14 -3 16 -7 2 -5 26 -23 53 -42 246 -169 428 -344 664 -641 45
-57 137 -200 212 -332 39 -68 67 -112 63 -98 -25 92 -245 433 -383 595 -55 65
-223 235 -297 302 -87 78 -273 213 -384 280 -336 201 -711 325 -1109 368 -138
14 -185 16 -315 8z m-39 -19 c-3 -3 -12 -4 -19 -1 -8 3 -5 6 6 6 11 1 17 -2
13 -5z"/>
<path d="M2675 5774 c-86 -13 -324 -67 -430 -98 -565 -162 -1096 -539 -1448
-1026 -42 -58 -84 -116 -94 -130 -42 -57 -196 -355 -223 -430 -6 -19 -16 -44
-21 -55 -12 -28 -39 -104 -50 -140 -4 -16 -16 -55 -25 -85 -36 -121 -73 -352
-78 -494 l-5 -121 13 85 c7 47 11 88 9 92 -2 4 6 69 18 144 23 151 66 331 104
427 13 34 36 94 50 132 46 118 194 395 236 441 10 11 19 23 19 27 0 13 74 111
166 222 119 143 317 337 429 420 22 16 42 32 45 35 13 14 118 88 140 100 14 7
54 31 90 54 94 59 97 61 185 104 278 139 473 202 823 267 80 15 147 18 205 9
21 -4 37 -2 37 3 0 11 0 11 -95 17 -38 2 -83 2 -100 0z"/>
<path d="M3090 5739 c15 -17 40 -21 40 -7 0 4 -4 8 -9 8 -5 0 -17 3 -27 7 -16
6 -17 5 -4 -8z"/>
<path d="M3220 5743 c0 -6 12 -15 26 -21 14 -7 23 -16 20 -20 -3 -5 0 -9 7 -9
18 0 15 43 -3 43 -8 1 -23 4 -32 9 -10 4 -18 3 -18 -2z"/>
<path d="M2801 5731 c-8 -5 -9 -11 -3 -15 5 -3 12 1 16 9 6 17 6 18 -13 6z"/>
<path d="M3155 5720 c3 -5 8 -10 11 -10 2 0 4 5 4 10 0 6 -5 10 -11 10 -5 0
-7 -4 -4 -10z"/>
<path d="M2850 5712 c0 -10 86 -35 102 -30 7 3 -5 8 -27 13 -37 7 -38 9 -15
15 21 7 18 8 -17 9 -24 1 -43 -3 -43 -7z"/>
<path d="M3429 5685 c-27 -29 -94 -65 -121 -65 -10 0 -18 -4 -18 -10 0 -17 29
-11 78 17 26 14 64 27 86 29 21 1 43 8 50 14 11 13 6 12 -38 -6 -10 -4 -12 1
-9 20 7 33 1 33 -28 1z"/>
<path d="M2637 5689 c7 -7 15 -10 18 -7 3 3 -2 9 -12 12 -14 6 -15 5 -6 -5z"/>
<path d="M2985 5689 c-11 -17 1 -21 15 -4 8 9 8 15 2 15 -6 0 -14 -5 -17 -11z"/>
<path d="M3340 5690 c0 -6 7 -10 15 -10 8 0 15 2 15 4 0 2 -7 6 -15 10 -8 3
-15 1 -15 -4z"/>
<path d="M3540 5692 c0 -20 -52 -61 -77 -62 -13 0 -23 -5 -23 -10 0 -15 51 -1
76 21 11 11 33 19 50 19 27 1 27 2 9 12 -11 6 -23 16 -27 22 -5 7 -8 7 -8 -2z"/>
<path d="M2800 5680 c0 -5 5 -10 11 -10 5 0 7 5 4 10 -3 6 -8 10 -11 10 -2 0
-4 -4 -4 -10z"/>
<path d="M3055 5680 c3 -5 8 -10 11 -10 2 0 4 5 4 10 0 6 -5 10 -11 10 -5 0
-7 -4 -4 -10z"/>
<path d="M2750 5670 c0 -5 5 -10 11 -10 5 0 7 5 4 10 -3 6 -8 10 -11 10 -2 0
-4 -4 -4 -10z"/>
<path d="M3305 5670 c3 -5 11 -10 16 -10 6 0 7 5 4 10 -3 6 -11 10 -16 10 -6
0 -7 -4 -4 -10z"/>
<path d="M2600 5660 c20 -13 43 -13 35 0 -3 6 -16 10 -28 10 -18 0 -19 -2 -7
-10z"/>
<path d="M2662 5661 c-11 -6 -10 -10 4 -15 9 -3 19 -4 22 -1 3 3 -1 5 -9 5
-11 0 -11 2 1 10 8 5 11 10 5 10 -5 0 -16 -4 -23 -9z"/>
<path d="M2946 5645 c17 -27 29 -31 39 -15 3 6 -1 10 -9 10 -9 0 -16 4 -16 9
0 5 -7 11 -15 15 -13 5 -13 2 1 -19z"/>
<path d="M2432 5643 c-48 -23 -32 -27 19 -4 24 11 37 20 29 20 -8 0 -30 -7
-48 -16z"/>
<path d="M3698 5647 c-16 -6 -28 -14 -28 -18 0 -12 49 3 54 17 3 8 4 14 3 13
-1 -1 -14 -6 -29 -12z"/>
<path d="M2560 5640 c0 -5 15 -10 33 -9 27 0 29 2 12 9 -28 12 -45 12 -45 0z"/>
<path d="M2830 5642 c0 -4 9 -13 20 -20 11 -7 20 -9 20 -4 0 4 -9 13 -20 20
-11 7 -20 9 -20 4z"/>
<path d="M3048 5643 c7 -3 16 -2 19 1 4 3 -2 6 -13 5 -11 0 -14 -3 -6 -6z"/>
<path d="M3240 5641 c0 -6 5 -13 10 -16 6 -3 10 1 10 9 0 9 -4 16 -10 16 -5 0
-10 -4 -10 -9z"/>
<path d="M2518 5633 c6 -2 18 -2 25 0 6 3 1 5 -13 5 -14 0 -19 -2 -12 -5z"/>
<path d="M3556 5625 c4 -8 1 -15 -7 -15 -7 0 -10 -2 -7 -5 3 -3 16 -2 29 3
l23 9 -22 12 c-18 10 -21 9 -16 -4z"/>
<path d="M3620 5630 c0 -5 5 -10 10 -10 6 0 10 5 10 10 0 6 -4 10 -10 10 -5 0
-10 -4 -10 -10z"/>
<path d="M2441 5619 c-40 -16 -17 -20 25 -5 22 8 30 15 19 15 -11 0 -31 -5
-44 -10z"/>
<path d="M2689 5611 c25 -22 41 -27 41 -12 0 5 -8 11 -17 15 -10 3 -25 9 -33
12 -8 4 -4 -3 9 -15z"/>
<path d="M3751 5602 c-10 -24 -10 -25 3 -9 10 13 15 15 19 5 2 -7 8 -10 12 -6
4 4 1 14 -7 22 -14 13 -17 12 -27 -12z"/>
<path d="M2235 5610 c3 -5 8 -10 11 -10 2 0 4 5 4 10 0 6 -5 10 -11 10 -5 0
-7 -4 -4 -10z"/>
<path d="M2505 5604 c-19 -9 -22 -12 -7 -8 13 3 29 0 37 -6 8 -6 22 -10 32 -7
17 4 16 5 -2 12 -11 5 -22 12 -25 16 -3 4 -18 1 -35 -7z"/>
<path d="M3000 5610 c0 -3 25 -5 56 -6 40 0 50 2 33 8 -23 9 -89 8 -89 -2z"/>
<path d="M3200 5609 c0 -5 5 -7 10 -4 6 3 10 8 10 11 0 2 -4 4 -10 4 -5 0 -10
-5 -10 -11z"/>
<path d="M3700 5601 c0 -5 7 -11 14 -14 10 -4 13 -1 9 9 -6 15 -23 19 -23 5z"/>
<path d="M2365 5590 c-3 -5 -1 -10 5 -10 6 0 22 -12 37 -26 33 -33 38 -26 10
14 -22 32 -41 40 -52 22z"/>
<path d="M3408 5593 c6 -2 18 -2 25 0 6 3 1 5 -13 5 -14 0 -19 -2 -12 -5z"/>
<path d="M3900 5585 c9 -10 9 -15 1 -15 -19 0 -8 -64 13 -73 16 -6 16 -9 5
-24 -12 -14 -12 -16 1 -11 24 8 24 48 -1 74 -19 20 -20 24 -6 24 20 0 22 11 5
28 -17 17 -33 15 -18 -3z"/>
<path d="M2438 5583 c6 -2 18 -2 25 0 6 3 1 5 -13 5 -14 0 -19 -2 -12 -5z"/>
<path d="M3954 5558 c3 -18 11 -35 16 -38 5 -3 11 -16 13 -29 4 -24 22 -41 45
-41 9 0 7 9 -8 27 -11 14 -29 46 -40 70 -22 51 -35 56 -26 11z"/>
<path d="M3308 5573 c7 -3 16 -2 19 1 4 3 -2 6 -13 5 -11 0 -14 -3 -6 -6z"/>
<path d="M2313 5563 c9 -2 23 -2 30 0 6 3 -1 5 -18 5 -16 0 -22 -2 -12 -5z"/>
<path d="M3000 5559 c0 -5 5 -7 10 -4 6 3 10 8 10 11 0 2 -4 4 -10 4 -5 0 -10
-5 -10 -11z"/>
<path d="M3248 5563 c7 -3 16 -2 19 1 4 3 -2 6 -13 5 -11 0 -14 -3 -6 -6z"/>
<path d="M3428 5563 c7 -3 16 -2 19 1 4 3 -2 6 -13 5 -11 0 -14 -3 -6 -6z"/>
<path d="M3680 5560 c0 -5 5 -10 11 -10 5 0 7 5 4 10 -3 6 -8 10 -11 10 -2 0
-4 -4 -4 -10z"/>
<path d="M3780 5561 c0 -6 5 -13 10 -16 6 -3 10 1 10 9 0 9 -4 16 -10 16 -5 0
-10 -4 -10 -9z"/>
<path d="M3570 5552 c0 -5 14 -7 30 -4 17 2 30 6 30 8 0 2 -13 4 -30 4 -16 0
-30 -4 -30 -8z"/>
<path d="M3850 5550 c0 -5 5 -10 10 -10 6 0 10 5 10 10 0 6 -4 10 -10 10 -5 0
-10 -4 -10 -10z"/>
<path d="M2355 5540 c3 -5 11 -10 17 -10 6 0 20 -7 30 -17 10 -9 18 -11 18 -6
0 12 -44 43 -60 43 -6 0 -8 -4 -5 -10z"/>
<path d="M3491 5546 c12 -10 59 -15 59 -6 0 5 -14 10 -32 10 -17 0 -29 -2 -27
-4z"/>
<path d="M3760 5540 c0 -5 5 -10 11 -10 5 0 7 5 4 10 -3 6 -8 10 -11 10 -2 0
-4 -4 -4 -10z"/>
<path d="M4010 5542 c0 -13 52 -84 57 -78 3 3 -6 24 -21 46 -25 39 -36 48 -36
32z"/>
<path d="M2035 5530 c-3 -6 1 -7 9 -4 18 7 21 14 7 14 -6 0 -13 -4 -16 -10z"/>
<path d="M2235 5530 c-7 -11 9 -11 45 0 24 8 24 8 -7 9 -17 1 -35 -3 -38 -9z"/>
<path d="M2520 5530 c0 -5 7 -7 15 -4 8 4 15 8 15 10 0 2 -7 4 -15 4 -8 0 -15
-4 -15 -10z"/>
<path d="M3800 5514 c0 -14 3 -15 18 -3 9 7 19 15 21 16 2 2 -5 3 -17 3 -14 0
-22 -6 -22 -16z"/>
<path d="M2070 5509 c0 -5 5 -7 10 -4 6 3 10 8 10 11 0 2 -4 4 -10 4 -5 0 -10
-5 -10 -11z"/>
<path d="M4065 5510 c3 -5 8 -10 11 -10 2 0 4 5 4 10 0 6 -5 10 -11 10 -5 0
-7 -4 -4 -10z"/>
<path d="M1962 5490 c-7 -11 -9 -20 -4 -20 4 0 13 9 20 20 7 11 9 20 4 20 -4
0 -13 -9 -20 -20z"/>
<path d="M3285 5490 c3 -5 12 -7 20 -3 21 7 19 13 -6 13 -11 0 -18 -4 -14 -10z"/>
<path d="M2060 5476 c14 -7 29 -10 34 -8 11 6 -20 20 -44 21 -8 0 -4 -5 10
-13z"/>
<path d="M2160 5480 c-8 -5 -10 -10 -5 -10 6 0 17 5 25 10 8 5 11 10 5 10 -5
0 -17 -5 -25 -10z"/>
<path d="M3770 5483 c0 -13 14 -28 30 -31 11 -3 10 2 -4 17 -20 22 -26 25 -26
14z"/>
<path d="M2980 5470 c8 -5 26 -9 40 -9 l25 1 -25 8 c-14 4 -32 8 -40 9 -13 1
-13 0 0 -9z"/>
<path d="M3720 5471 c0 -10 26 -9 36 2 4 4 -2 7 -14 7 -12 0 -22 -4 -22 -9z"/>
<path d="M3850 5471 c0 -6 5 -13 10 -16 6 -3 10 1 10 9 0 9 -4 16 -10 16 -5 0
-10 -4 -10 -9z"/>
<path d="M1848 5463 c7 -3 16 -2 19 1 4 3 -2 6 -13 5 -11 0 -14 -3 -6 -6z"/>
<path d="M3390 5460 c-22 -6 -20 -7 15 -12 22 -3 49 -9 61 -13 13 -4 28 1 45
15 l24 21 -30 -15 c-25 -11 -36 -12 -60 -2 -17 7 -41 9 -55 6z"/>
<path d="M2100 5450 c0 -5 5 -10 10 -10 6 0 10 5 10 10 0 6 -4 10 -10 10 -5 0
-10 -4 -10 -10z"/>
<path d="M3610 5450 c0 -5 5 -10 10 -10 6 0 10 5 10 10 0 6 -4 10 -10 10 -5 0
-10 -4 -10 -10z"/>
<path d="M1980 5438 c0 -9 5 -20 10 -23 13 -8 13 5 0 25 -8 13 -10 13 -10 -2z"/>
<path d="M2045 5430 c-10 -11 -15 -20 -11 -20 11 0 39 30 34 36 -3 2 -13 -5
-23 -16z"/>
<path d="M2850 5440 c-9 -6 -10 -10 -3 -10 6 0 15 5 18 10 8 12 4 12 -15 0z"/>
<path d="M3970 5440 c0 -5 7 -10 16 -10 8 0 12 5 9 10 -3 6 -10 10 -16 10 -5
0 -9 -4 -9 -10z"/>
<path d="M1790 5405 c-36 -18 -80 -46 -97 -62 -30 -26 -31 -29 -16 -43 15 -13
16 -12 10 3 -3 9 -2 17 2 17 5 0 24 14 42 31 19 17 57 42 86 55 29 12 53 25
53 28 0 11 -14 5 -80 -29z"/>
<path d="M1880 5436 c0 -2 11 -6 25 -8 14 -3 25 -1 25 3 0 5 -11 9 -25 9 -14
0 -25 -2 -25 -4z"/>
<path d="M2353 5433 c9 -2 23 -2 30 0 6 3 -1 5 -18 5 -16 0 -22 -2 -12 -5z"/>
<path d="M3650 5424 c0 -8 5 -12 10 -9 6 4 8 11 5 16 -9 14 -15 11 -15 -7z"/>
<path d="M3891 5424 c-18 -8 -44 -14 -57 -14 -13 0 -24 -4 -24 -9 0 -5 30 -2
66 5 69 15 84 12 84 -12 0 -8 4 -14 9 -14 17 0 -1 38 -23 48 -16 7 -31 6 -55
-4z"/>
<path d="M2155 5409 c-37 -14 -55 -17 -67 -10 -14 9 -16 8 -12 -4 9 -21 42
-18 99 9 61 30 49 33 -20 5z"/>
<path d="M2308 5423 c7 -3 16 -2 19 1 4 3 -2 6 -13 5 -11 0 -14 -3 -6 -6z"/>
<path d="M2986 5422 c-3 -5 1 -9 9 -9 8 0 12 4 9 9 -3 4 -7 8 -9 8 -2 0 -6 -4
-9 -8z"/>
<path d="M4021 5423 c1 -16 18 -48 19 -38 1 6 3 18 5 28 2 9 -3 17 -11 17 -8
0 -14 -3 -13 -7z"/>
<path d="M4140 5421 c0 -5 11 -8 25 -8 14 0 28 3 31 8 3 5 -9 9 -25 9 -17 0
-31 -4 -31 -9z"/>
<path d="M2758 5413 c6 -2 18 -2 25 0 6 3 1 5 -13 5 -14 0 -19 -2 -12 -5z"/>
<path d="M3520 5410 c-8 -5 -10 -10 -5 -10 6 0 17 5 25 10 8 5 11 10 5 10 -5
0 -17 -5 -25 -10z"/>
<path d="M1705 5398 c-24 -13 -79 -58 -71 -58 3 0 21 11 41 24 20 14 41 27 48
29 7 2 10 7 7 10 -3 3 -14 1 -25 -5z"/>
<path d="M1848 5391 c-35 -13 -45 -20 -37 -28 9 -9 22 -5 50 14 32 21 50 37
37 32 -2 0 -24 -9 -50 -18z"/>
<path d="M1940 5406 c0 -2 11 -6 25 -8 13 -3 22 -1 19 3 -5 9 -44 13 -44 5z"/>
<path d="M2708 5403 c6 -2 18 -2 25 0 6 3 1 5 -13 5 -14 0 -19 -2 -12 -5z"/>
<path d="M3428 5403 c7 -3 16 -2 19 1 4 3 -2 6 -13 5 -11 0 -14 -3 -6 -6z"/>
<path d="M2170 5378 c-30 -11 -57 -22 -59 -24 -9 -8 64 9 74 17 5 5 17 9 26 9
10 0 21 5 24 10 8 13 0 12 -65 -12z"/>
<path d="M4170 5386 c0 -2 7 -7 16 -10 8 -3 12 -2 9 4 -6 10 -25 14 -25 6z"/>
<path d="M1905 5370 c3 -5 8 -10 11 -10 2 0 4 5 4 10 0 6 -5 10 -11 10 -5 0
-7 -4 -4 -10z"/>
<path d="M1972 5358 c3 -7 18 -14 34 -16 28 -3 28 -3 9 12 -24 19 -48 21 -43
4z"/>
<path d="M2048 5363 c7 -3 16 -2 19 1 4 3 -2 6 -13 5 -11 0 -14 -3 -6 -6z"/>
<path d="M4021 5354 c-12 -14 -11 -16 4 -12 10 1 20 9 23 16 5 17 -10 15 -27
-4z"/>
<path d="M2635 5350 c4 -6 11 -8 16 -5 14 9 11 15 -7 15 -8 0 -12 -5 -9 -10z"/>
<path d="M3940 5348 c-16 -7 -20 -12 -12 -15 8 -3 21 2 30 11 19 18 17 19 -18
4z"/>
<path d="M4375 5340 c3 -5 8 -10 11 -10 2 0 4 5 4 10 0 6 -5 10 -11 10 -5 0
-7 -4 -4 -10z"/>
<path d="M1740 5330 c-13 -8 -13 -10 2 -10 9 0 20 5 23 10 8 13 -5 13 -25 0z"/>
<path d="M2140 5336 c0 -2 7 -7 16 -10 8 -3 12 -2 9 4 -6 10 -25 14 -25 6z"/>
<path d="M3035 5330 c3 -5 8 -10 11 -10 2 0 4 5 4 10 0 6 -5 10 -11 10 -5 0
-7 -4 -4 -10z"/>
<path d="M4215 5330 c28 -12 37 -12 30 0 -3 6 -16 10 -28 9 -21 0 -21 -1 -2
-9z"/>
<path d="M2425 5320 c3 -5 11 -10 16 -10 6 0 7 5 4 10 -3 6 -11 10 -16 10 -6
0 -7 -4 -4 -10z"/>
<path d="M3758 5318 c9 -9 15 -9 24 0 9 9 7 12 -12 12 -19 0 -21 -3 -12 -12z"/>
<path d="M4065 5320 c-3 -5 -1 -10 4 -10 6 0 11 5 11 10 0 6 -2 10 -4 10 -3 0
-8 -4 -11 -10z"/>
<path d="M4164 5315 c36 -19 45 -19 20 0 -10 8 -26 14 -34 15 -8 0 -2 -7 14
-15z"/>
<path d="M4318 5323 c7 -3 16 -2 19 1 4 3 -2 6 -13 5 -11 0 -14 -3 -6 -6z"/>
<path d="M1826 5307 c3 -10 9 -15 12 -12 3 3 0 11 -7 18 -10 9 -11 8 -5 -6z"/>
<path d="M2028 5313 c6 -2 18 -2 25 0 6 3 1 5 -13 5 -14 0 -19 -2 -12 -5z"/>
<path d="M3970 5289 c-32 -17 -33 -19 -10 -19 24 1 60 20 60 34 0 9 -11 6 -50
-15z"/>
<path d="M1653 5295 c4 -5 -2 -14 -14 -21 -12 -6 -18 -13 -13 -16 5 -3 17 3
27 12 15 14 16 20 5 26 -7 4 -9 3 -5 -1z"/>
<path d="M1970 5290 c0 -5 5 -10 11 -10 5 0 7 5 4 10 -3 6 -8 10 -11 10 -2 0
-4 -4 -4 -10z"/>
<path d="M3780 5290 c-9 -6 -10 -10 -3 -10 6 0 15 5 18 10 8 12 4 12 -15 0z"/>
<path d="M4245 5290 c-30 -8 -30 -8 8 -9 23 -1 36 3 32 9 -3 6 -7 9 -8 9 -1
-1 -15 -5 -32 -9z"/>
<path d="M1704 5274 c-18 -14 -18 -15 4 -4 12 6 22 13 22 15 0 8 -5 6 -26 -11z"/>
<path d="M4090 5280 c20 -13 40 -13 40 0 0 6 -12 10 -27 10 -22 0 -25 -2 -13
-10z"/>
<path d="M1581 5266 c-10 -12 -8 -13 8 -9 12 3 21 9 21 14 0 14 -16 11 -29 -5z"/>
<path d="M1800 5260 c-9 -6 -10 -10 -3 -10 6 0 15 5 18 10 8 12 4 12 -15 0z"/>
<path d="M3821 5247 c19 -13 38 -22 42 -20 5 3 -8 13 -27 24 -49 26 -56 24
-15 -4z"/>
<path d="M1660 5250 c-12 -8 -10 -10 8 -10 13 0 20 4 17 10 -7 12 -6 12 -25 0z"/>
<path d="M2109 5239 c18 -11 36 -18 39 -15 3 4 2 6 -3 6 -4 0 -1 8 6 18 13 15
12 16 -3 4 -12 -10 -22 -11 -37 -3 -35 19 -37 12 -2 -10z"/>
<path d="M4140 5248 c0 -6 3 -8 7 -5 3 4 12 2 20 -4 8 -7 13 -8 13 -1 0 5 -7
13 -16 16 -22 8 -24 8 -24 -6z"/>
<path d="M1765 5240 c3 -5 8 -10 11 -10 2 0 4 5 4 10 0 6 -5 10 -11 10 -5 0
-7 -4 -4 -10z"/>
<path d="M2005 5245 c-5 -2 -22 -6 -37 -9 -16 -4 -28 -11 -28 -17 0 -6 6 -6
19 1 11 5 40 10 66 10 28 0 44 4 40 10 -6 10 -38 12 -60 5z"/>
<path d="M2990 5239 c-73 -8 -158 -21 -275 -44 -16 -3 -43 -8 -60 -11 -55 -11
-239 -67 -326 -99 -92 -36 -269 -118 -309 -146 -14 -9 -47 -29 -75 -45 -42
-23 -219 -146 -235 -164 -3 -3 -34 -30 -70 -60 -135 -113 -235 -222 -338 -368
-19 -26 -45 -62 -59 -80 -14 -18 -22 -36 -18 -40 4 -4 12 1 19 11 6 10 21 31
34 45 12 15 25 36 28 46 4 11 16 29 28 41 11 12 35 39 51 61 119 152 316 329
505 451 36 24 70 46 76 50 35 26 246 132 324 163 106 43 335 113 405 126 152
26 218 35 315 43 185 16 236 14 490 -15 113 -13 195 -28 320 -59 240 -60 412
-126 650 -250 117 -61 118 -62 103 -44 -16 19 -274 149 -388 194 -146 59 -408
134 -544 156 -250 40 -494 54 -651 38z"/>
<path d="M1590 5210 c6 -11 16 -20 23 -19 9 0 9 2 0 6 -7 2 -13 11 -13 19 0 8
-5 14 -10 14 -7 0 -7 -6 0 -20z"/>
<path d="M1730 5220 c-9 -6 -10 -10 -3 -10 6 0 15 5 18 10 8 12 4 12 -15 0z"/>
<path d="M3100 5189 c0 -11 66 -10 100 1 18 6 8 8 -37 8 -35 -1 -63 -5 -63 -9z"/>
<path d="M3243 5193 c9 -2 23 -2 30 0 6 3 -1 5 -18 5 -16 0 -22 -2 -12 -5z"/>
<path d="M3975 5192 c-11 -2 -24 -8 -30 -14 -9 -9 43 -1 54 8 8 7 -4 10 -24 6z"/>
<path d="M1730 5180 c-13 -8 -13 -10 2 -10 9 0 20 5 23 10 8 13 -5 13 -25 0z"/>
<path d="M4418 5183 c6 -2 18 -2 25 0 6 3 1 5 -13 5 -14 0 -19 -2 -12 -5z"/>
<path d="M2823 5168 c-12 -5 -6 -6 15 -4 19 3 36 7 39 10 8 7 -32 3 -54 -6z"/>
<path d="M3480 5172 c0 -5 14 -7 30 -4 17 2 30 6 30 8 0 2 -13 4 -30 4 -16 0
-30 -4 -30 -8z"/>
<path d="M4528 5173 c7 -3 16 -2 19 1 4 3 -2 6 -13 5 -11 0 -14 -3 -6 -6z"/>
<path d="M2088 5163 c7 -3 16 -2 19 1 4 3 -2 6 -13 5 -11 0 -14 -3 -6 -6z"/>
<path d="M2700 5149 c-22 -6 -21 -7 10 -8 19 0 42 4 50 9 12 8 10 9 -10 8 -14
-1 -36 -5 -50 -9z"/>
<path d="M3600 5150 c16 -10 67 -14 58 -4 -3 3 -21 7 -39 9 -25 3 -30 2 -19
-5z"/>
<path d="M4280 5151 c0 -5 7 -12 16 -15 14 -5 15 -4 4 9 -14 17 -20 19 -20 6z"/>
<path d="M1568 5136 c-25 -6 -49 -14 -53 -18 -4 -4 -13 -4 -21 -1 -8 3 -14 0
-14 -6 0 -14 2 -14 84 6 53 13 73 14 87 5 28 -18 129 -28 129 -13 0 7 -5 9
-11 5 -14 -8 -119 16 -119 28 0 10 -22 9 -82 -6z"/>
<path d="M4468 5143 c7 -3 16 -2 19 1 4 3 -2 6 -13 5 -11 0 -14 -3 -6 -6z"/>
<path d="M2590 5121 c-14 -4 -20 -10 -15 -13 10 -6 55 7 55 17 0 6 -7 5 -40
-4z"/>
<path d="M4528 5123 c7 -3 16 -2 19 1 4 3 -2 6 -13 5 -11 0 -14 -3 -6 -6z"/>
<path d="M4605 5120 c3 -5 11 -10 16 -10 6 0 7 5 4 10 -3 6 -11 10 -16 10 -6
0 -7 -4 -4 -10z"/>
<path d="M1620 5093 c14 -10 35 -16 49 -14 13 1 21 -1 17 -7 -4 -6 3 -8 16 -4
20 5 19 7 -14 16 -20 6 -40 14 -44 19 -4 4 -17 7 -28 7 -19 0 -19 -1 4 -17z"/>
<path d="M2538 5103 c7 -3 16 -2 19 1 4 3 -2 6 -13 5 -11 0 -14 -3 -6 -6z"/>
<path d="M1780 5090 c-11 -7 -6 -10 20 -10 19 -1 54 -3 78 -6 23 -3 42 -2 42
3 0 4 -18 9 -41 10 -22 0 -50 4 -62 7 -12 3 -29 1 -37 -4z"/>
<path d="M2080 5090 c-14 -4 -45 -9 -70 -10 -41 -2 -42 -3 -15 -9 31 -7 93 4
110 20 10 10 10 10 -25 -1z"/>
<path d="M1338 5082 c-10 -2 -18 -8 -18 -13 0 -10 58 -3 95 12 14 5 8 7 -20 6
-22 -1 -48 -3 -57 -5z"/>
<path d="M1444 5082 c3 -5 0 -13 -6 -15 -8 -3 -6 -6 5 -6 19 -1 23 14 5 25 -6
4 -8 3 -4 -4z"/>
<path d="M2477 5079 c7 -7 15 -10 18 -7 3 3 -2 9 -12 12 -14 6 -15 5 -6 -5z"/>
<path d="M1510 5070 c0 -5 5 -10 10 -10 6 0 10 5 10 10 0 6 -4 10 -10 10 -5 0
-10 -4 -10 -10z"/>
<path d="M2440 5072 c0 -5 7 -9 15 -9 8 0 12 4 9 9 -3 4 -9 8 -15 8 -5 0 -9
-4 -9 -8z"/>
<path d="M1280 5060 c0 -5 5 -10 11 -10 5 0 7 5 4 10 -3 6 -8 10 -11 10 -2 0
-4 -4 -4 -10z"/>
<path d="M2383 5058 c-18 -6 -33 -14 -33 -19 0 -4 16 -2 35 4 19 6 35 14 35
19 0 4 -1 8 -2 7 -2 -1 -18 -6 -35 -11z"/>
<path d="M1734 5049 c-3 -6 -1 -16 5 -22 9 -9 10 -8 5 7 -5 14 -3 17 7 14 8
-3 13 -11 11 -17 -1 -8 4 -8 18 1 22 14 23 13 -12 22 -15 3 -30 1 -34 -5z"/>
<path d="M1500 5025 c0 -9 6 -12 15 -9 8 4 15 10 15 15 0 5 -7 9 -15 9 -8 0
-15 -7 -15 -15z"/>
<path d="M2300 5023 l-25 -13 27 3 c30 3 44 12 31 19 -4 3 -19 -1 -33 -9z"/>
<path d="M1430 5020 c0 -5 -7 -7 -15 -4 -8 4 -22 1 -30 -6 -21 -17 -19 -33 3
-21 9 5 19 9 22 9 4 1 22 7 70 25 8 3 0 6 -17 6 -18 1 -33 -3 -33 -9z"/>
<path d="M1271 5016 c12 -10 60 -16 54 -6 -3 5 -18 10 -32 10 -15 0 -24 -2
-22 -4z"/>
<path d="M4170 5006 c0 -2 7 -7 16 -10 8 -3 12 -2 9 4 -6 10 -25 14 -25 6z"/>
<path d="M1191 4990 c0 -8 4 -24 9 -35 l9 -20 0 20 c0 11 -4 27 -9 35 -9 13
-10 13 -9 0z"/>
<path d="M2220 4990 c-9 -6 -10 -10 -3 -10 6 0 15 5 18 10 8 12 4 12 -15 0z"/>
<path d="M1338 4983 c7 -3 16 -2 19 1 4 3 -2 6 -13 5 -11 0 -14 -3 -6 -6z"/>
<path d="M4635 4970 c3 -5 8 -10 11 -10 2 0 4 5 4 10 0 6 -5 10 -11 10 -5 0
-7 -4 -4 -10z"/>
<path d="M4240 4966 c0 -2 7 -6 15 -10 8 -3 15 -1 15 4 0 6 -7 10 -15 10 -8 0
-15 -2 -15 -4z"/>
<path d="M1315 4949 c-16 -6 -14 -8 13 -8 33 -1 41 4 20 12 -7 2 -22 1 -33 -4z"/>
<path d="M1126 4935 c4 -8 8 -15 10 -15 2 0 4 7 4 15 0 8 -4 15 -10 15 -5 0
-7 -7 -4 -15z"/>
<path d="M1170 4940 c0 -5 5 -10 11 -10 5 0 7 5 4 10 -3 6 -8 10 -11 10 -2 0
-4 -4 -4 -10z"/>
<path d="M1228 4931 c-12 -14 -13 -22 -5 -30 16 -16 32 -14 18 2 -8 10 -7 17
1 25 6 6 9 14 7 17 -3 2 -12 -4 -21 -14z"/>
<path d="M1260 4940 c0 -5 5 -10 10 -10 6 0 10 5 10 10 0 6 -4 10 -10 10 -5 0
-10 -4 -10 -10z"/>
<path d="M1412 4943 c-12 -2 -20 -9 -17 -14 4 -5 13 -5 24 0 9 6 32 9 49 9 18
-1 35 2 39 5 7 7 -57 7 -95 0z"/>
<path d="M2114 4935 c-18 -14 -18 -14 4 -8 12 3 22 9 22 14 0 12 -3 11 -26 -6z"/>
<path d="M4677 4943 c-3 -5 14 -9 36 -10 32 -2 37 0 22 7 -25 11 -52 12 -58 3z"/>
<path d="M4768 4913 c6 -2 18 -2 25 0 6 3 1 5 -13 5 -14 0 -19 -2 -12 -5z"/>
<path d="M1180 4904 c0 -6 12 -21 26 -33 26 -23 54 -22 54 1 0 9 -3 9 -10 -2
-8 -12 -14 -10 -40 15 -16 16 -30 24 -30 19z"/>
<path d="M1345 4900 c-3 -5 -1 -10 4 -10 6 0 11 5 11 10 0 6 -2 10 -4 10 -3 0
-8 -4 -11 -10z"/>
<path d="M2039 4893 c-13 -16 -12 -17 4 -4 9 7 17 15 17 17 0 8 -8 3 -21 -13z"/>
<path d="M1285 4880 c-3 -5 -1 -10 4 -10 6 0 11 5 11 10 0 6 -2 10 -4 10 -3 0
-8 -4 -11 -10z"/>
<path d="M1513 4873 c-23 -9 -14 -20 12 -15 14 2 22 8 19 13 -6 10 -12 10 -31
2z"/>
<path d="M1969 4854 c-35 -27 -33 -28 14 -5 15 8 27 18 27 23 0 12 -3 11 -41
-18z"/>
<path d="M4430 4876 c0 -2 9 -6 20 -9 11 -3 18 -1 14 4 -5 9 -34 13 -34 5z"/>
<path d="M1368 4863 c6 -2 18 -2 25 0 6 3 1 5 -13 5 -14 0 -19 -2 -12 -5z"/>
<path d="M1628 4863 c6 -2 18 -2 25 0 6 3 1 5 -13 5 -14 0 -19 -2 -12 -5z"/>
<path d="M4750 4850 l-25 -8 28 -1 c15 -1 27 4 27 9 0 6 -1 10 -2 9 -2 -1 -14
-5 -28 -9z"/>
<path d="M1100 4840 c-9 -6 -10 -10 -3 -10 6 0 15 5 18 10 8 12 4 12 -15 0z"/>
<path d="M1320 4830 c-8 -5 -10 -10 -5 -10 6 0 17 5 25 10 8 5 11 10 5 10 -5
0 -17 -5 -25 -10z"/>
<path d="M1410 4831 c0 -5 9 -7 20 -4 11 3 20 7 20 9 0 2 -9 4 -20 4 -11 0
-20 -4 -20 -9z"/>
<path d="M4590 4832 c0 -5 12 -15 28 -23 147 -75 450 -331 597 -503 28 -33 55
-64 60 -70 9 -9 108 -140 178 -236 14 -20 14 -17 -2 12 -21 40 -155 223 -181
248 -8 8 -33 38 -55 65 -71 89 -298 299 -394 365 -20 14 -66 46 -102 73 -37
26 -71 47 -77 47 -5 0 -15 7 -22 15 -14 16 -30 20 -30 7z"/>
<path d="M1901 4810 c-13 -11 -19 -20 -14 -20 6 0 18 9 28 20 23 25 17 25 -14
0z"/>
<path d="M1148 4813 c7 -3 16 -2 19 1 4 3 -2 6 -13 5 -11 0 -14 -3 -6 -6z"/>
<path d="M1035 4800 c-4 -6 7 -10 27 -9 27 0 30 2 13 9 -27 12 -33 12 -40 0z"/>
<path d="M1210 4803 c0 -4 5 -15 10 -23 8 -13 10 -13 10 2 0 9 -4 20 -10 23
-5 3 -10 3 -10 -2z"/>
<path d="M1107 4779 c7 -7 15 -10 18 -7 3 3 -2 9 -12 12 -14 6 -15 5 -6 -5z"/>
<path d="M1455 4780 c3 -5 8 -10 11 -10 2 0 4 5 4 10 0 6 -5 10 -11 10 -5 0
-7 -4 -4 -10z"/>
<path d="M4900 4779 c0 -10 44 -23 61 -17 6 2 -5 9 -25 15 -20 6 -36 7 -36 2z"/>
<path d="M1845 4770 c-3 -5 -2 -10 4 -10 5 0 13 5 16 10 3 6 2 10 -4 10 -5 0
-13 -4 -16 -10z"/>
<path d="M1325 4760 c27 -12 43 -12 25 0 -8 5 -22 9 -30 9 -10 0 -8 -3 5 -9z"/>
<path d="M5170 4761 c0 -7 10 -22 23 -35 12 -12 34 -41 50 -64 31 -47 41 -54
24 -17 -7 14 -15 25 -19 25 -5 0 -8 6 -8 13 0 7 -16 30 -35 51 -19 21 -35 33
-35 27z"/>
<path d="M1805 4740 c-3 -6 1 -7 9 -4 18 7 21 14 7 14 -6 0 -13 -4 -16 -10z"/>
<path d="M995 4730 c-5 -7 16 -9 62 -4 89 9 93 14 10 14 -36 0 -69 -5 -72 -10z"/>
<path d="M4675 4730 c3 -5 8 -10 11 -10 2 0 4 5 4 10 0 6 -5 10 -11 10 -5 0
-7 -4 -4 -10z"/>
<path d="M948 4713 c7 -3 16 -2 19 1 4 3 -2 6 -13 5 -11 0 -14 -3 -6 -6z"/>
<path d="M5100 4701 c0 -5 -10 -12 -22 -16 -16 -4 -19 -8 -9 -12 7 -3 23 4 34
16 12 12 16 21 9 21 -6 0 -12 -4 -12 -9z"/>
<path d="M1010 4696 c0 -8 51 -13 56 -5 3 5 -9 9 -25 9 -17 0 -31 -2 -31 -4z"/>
<path d="M1305 4680 c-3 -5 1 -10 10 -10 9 0 13 5 10 10 -3 6 -8 10 -10 10 -2
0 -7 -4 -10 -10z"/>
<path d="M1418 4683 c7 -3 16 -2 19 1 4 3 -2 6 -13 5 -11 0 -14 -3 -6 -6z"/>
<path d="M1715 4670 c-3 -6 1 -7 9 -4 18 7 21 14 7 14 -6 0 -13 -4 -16 -10z"/>
<path d="M5028 4673 c7 -3 16 -2 19 1 4 3 -2 6 -13 5 -11 0 -14 -3 -6 -6z"/>
<path d="M968 4665 c-2 -2 -20 -6 -41 -9 -21 -3 -47 -10 -56 -16 -10 -5 -20
-8 -22 -6 -2 2 -12 -7 -22 -20 -10 -13 -13 -24 -7 -24 5 0 10 4 10 10 0 15
108 42 155 38 32 -2 41 0 34 8 -10 12 -45 25 -51 19z"/>
<path d="M3069 4666 c-2 -2 -38 -7 -79 -10 -41 -3 -86 -8 -100 -12 -14 -3 -36
-6 -50 -7 -14 -1 -28 -6 -31 -10 -4 -5 -20 -10 -36 -11 -16 -2 -34 -6 -40 -9
-5 -3 -20 -8 -34 -11 -79 -18 -119 -30 -119 -38 0 -4 -9 -8 -19 -8 -11 0 -35
-9 -53 -19 -18 -10 -47 -22 -65 -26 -17 -3 -33 -12 -36 -19 -3 -7 -23 -18 -46
-26 -23 -7 -41 -16 -41 -19 0 -3 -15 -13 -32 -21 -18 -7 -42 -22 -52 -32 -10
-9 -23 -15 -28 -12 -4 3 -8 0 -8 -5 0 -6 -7 -11 -16 -11 -8 0 -13 -4 -10 -9 3
-4 -6 -13 -19 -19 -14 -7 -25 -16 -25 -22 0 -5 -4 -10 -10 -10 -12 0 -86 -50
-74 -50 5 0 -5 -13 -23 -28 -87 -77 -110 -100 -116 -116 -4 -10 -11 -14 -17
-11 -5 3 -10 1 -10 -5 0 -6 -11 -23 -25 -38 -14 -15 -25 -32 -25 -39 0 -7 -4
-13 -9 -13 -5 0 -13 -10 -16 -21 -6 -17 -9 -19 -17 -8 -7 10 -7 8 -3 -8 4 -14
2 -23 -5 -23 -6 0 -8 -4 -5 -10 3 -5 2 -10 -3 -10 -5 0 -17 -15 -26 -32 -21
-42 -39 -72 -48 -78 -3 -3 -10 -18 -13 -33 -4 -15 -12 -27 -17 -27 -6 0 -7 -7
-4 -16 5 -12 2 -15 -11 -10 -15 6 -16 5 -5 -5 13 -14 17 -33 4 -25 -4 2 -8 -3
-9 -12 -1 -9 -13 -51 -28 -92 -14 -41 -31 -111 -37 -155 -6 -44 -17 -91 -25
-104 -10 -16 -11 -21 -2 -16 9 6 10 0 5 -26 -15 -68 -19 -112 -10 -107 5 4 10
-26 10 -65 1 -40 9 -117 19 -172 9 -55 18 -110 19 -122 0 -13 4 -23 7 -23 3 0
6 -16 7 -35 1 -20 8 -42 16 -50 8 -9 18 -25 21 -38 7 -24 14 -42 38 -97 9 -19
13 -38 11 -42 -3 -4 0 -8 7 -8 6 0 9 -8 6 -20 -4 -15 0 -20 14 -20 11 0 19 -7
19 -16 0 -19 65 -126 91 -150 10 -9 19 -22 19 -28 0 -6 46 -58 103 -116 56
-57 101 -108 99 -113 -2 -5 3 -7 11 -4 7 3 19 -4 26 -15 7 -11 15 -17 18 -14
3 3 13 -3 22 -13 22 -25 112 -81 204 -126 43 -21 80 -42 83 -47 3 -5 10 -6 15
-3 5 3 23 0 41 -8 18 -8 53 -20 78 -26 25 -7 59 -17 75 -23 33 -12 323 -22
349 -12 37 14 10 19 -91 16 -95 -3 -180 4 -278 23 -90 18 -344 123 -353 146
-2 5 -9 9 -15 9 -6 0 -52 32 -103 71 -86 65 -218 198 -290 294 -35 46 -134
211 -134 224 0 5 -11 33 -25 63 -102 222 -138 562 -87 810 46 221 142 432 272
592 30 37 61 77 69 88 26 36 181 166 270 227 111 76 217 131 372 194 162 66
395 107 605 107 422 0 829 -140 1149 -396 229 -182 424 -417 546 -654 30 -60
45 -79 47 -65 3 10 -1 21 -7 23 -6 2 -11 8 -11 14 0 6 -17 41 -37 77 -21 36
-38 68 -38 71 -3 16 -49 80 -57 80 -6 0 -8 11 -4 28 4 17 3 22 -2 13 -8 -10
-13 -8 -25 10 -9 12 -13 27 -10 33 3 6 3 8 -2 4 -6 -6 -45 32 -45 44 0 2 -22
28 -50 58 -27 29 -46 58 -43 64 3 6 3 8 -1 5 -8 -7 -172 153 -168 164 1 5 -2
6 -7 3 -7 -5 -51 22 -71 44 -3 3 -23 18 -45 35 -22 16 -42 32 -45 35 -3 4 -25
19 -50 33 -25 14 -55 35 -67 46 -11 11 -24 17 -27 14 -3 -4 -6 -1 -6 6 0 8 -6
11 -16 7 -8 -3 -12 -2 -9 4 3 6 -3 10 -13 10 -11 0 -25 7 -32 15 -7 8 -23 15
-36 15 -12 0 -29 6 -36 13 -7 8 -30 19 -50 26 -20 7 -39 17 -42 24 -3 8 -5 7
-5 -2 -1 -11 -8 -8 -25 8 -16 15 -47 26 -94 34 -39 7 -74 16 -78 20 -4 4 -22
7 -40 7 -18 0 -34 6 -37 14 -4 9 -16 13 -32 11 -15 -1 -43 2 -63 7 -21 5 -48
11 -62 13 -34 6 -366 15 -371 11z"/>
<path d="M1233 4654 c5 -5 12 -9 15 -10 4 0 23 -8 42 -16 52 -23 80 -30 80
-21 0 8 -43 25 -125 50 -12 3 -17 2 -12 -3z"/>
<path d="M1388 4633 c7 -3 16 -2 19 1 4 3 -2 6 -13 5 -11 0 -14 -3 -6 -6z"/>
<path d="M1435 4620 c-3 -5 -1 -10 4 -10 6 0 11 5 11 10 0 6 -2 10 -4 10 -3 0
-8 -4 -11 -10z"/>
<path d="M3005 4609 c-112 -9 -348 -71 -474 -124 -292 -123 -524 -304 -690
-538 -52 -73 -152 -278 -181 -368 -29 -92 -60 -295 -60 -392 0 -104 15 -226
42 -342 110 -475 496 -882 943 -995 67 -17 129 -24 242 -28 155 -5 231 5 358
45 72 23 195 82 195 93 0 6 -1 10 -2 10 -8 0 -109 -41 -145 -59 -47 -23 -134
-48 -203 -59 -75 -11 -342 -8 -385 5 -160 47 -225 68 -225 75 0 4 -7 8 -14 8
-8 0 -42 16 -75 35 -32 19 -64 35 -69 35 -6 0 -12 4 -14 8 -1 4 -21 19 -43 32
-59 36 -80 55 -189 164 -137 140 -253 322 -312 491 -201 578 -21 1168 471
1546 221 169 521 292 815 333 132 18 389 7 550 -25 96 -19 306 -89 414 -138
190 -86 445 -272 572 -417 32 -37 66 -75 74 -83 8 -9 28 -35 44 -56 17 -22 32
-42 36 -45 31 -28 140 -210 193 -322 44 -94 111 -293 138 -408 63 -267 65
-651 5 -928 -9 -40 -16 -79 -15 -85 2 -36 37 106 54 218 21 141 25 185 25 313
0 205 -23 384 -77 587 -8 33 -16 65 -18 70 -2 12 -14 43 -25 70 -29 67 -60
146 -60 153 0 25 -142 265 -214 362 -75 100 -264 297 -352 366 -59 46 -211
146 -284 186 -79 44 -244 111 -326 133 -32 9 -93 25 -134 36 -152 40 -381 55
-585 38z"/>
<path d="M875 4600 c-12 -4 -27 -15 -35 -25 -7 -9 -27 -23 -44 -32 -17 -9 -26
-18 -19 -20 7 -3 33 12 59 31 36 28 55 35 78 33 17 -3 23 -2 13 0 -9 2 -15 9
-12 14 7 11 -12 11 -40 -1z"/>
<path d="M1060 4589 c0 -5 5 -7 10 -4 6 3 10 8 10 11 0 2 -4 4 -10 4 -5 0 -10
-5 -10 -11z"/>
<path d="M5305 4580 c-3 -5 -1 -10 4 -10 6 0 11 5 11 10 0 6 -2 10 -4 10 -3 0
-8 -4 -11 -10z"/>
<path d="M3350 4560 c0 -5 5 -10 10 -10 6 0 10 5 10 10 0 6 -4 10 -10 10 -5 0
-10 -4 -10 -10z"/>
<path d="M3310 4550 c18 -12 30 -13 30 -2 0 4 -10 9 -22 9 -18 2 -20 0 -8 -7z"/>
<path d="M5310 4556 c0 -2 8 -10 18 -17 15 -13 16 -12 3 4 -13 16 -21 21 -21
13z"/>
<path d="M864 4538 c-3 -4 2 -8 10 -8 8 0 17 4 20 8 3 5 -2 9 -10 9 -8 0 -17
-4 -20 -9z"/>
<path d="M2912 4538 c-19 -19 -14 -33 6 -16 9 9 24 18 32 21 11 4 9 6 -5 6
-12 1 -26 -4 -33 -11z"/>
<path d="M3490 4540 c0 -5 5 -10 10 -10 6 0 10 5 10 10 0 6 -4 10 -10 10 -5 0
-10 -4 -10 -10z"/>
<path d="M980 4530 c-13 -8 -12 -10 3 -10 9 0 17 5 17 10 0 12 -1 12 -20 0z"/>
<path d="M2845 4530 c-8 -13 15 -13 35 0 12 8 11 10 -7 10 -12 0 -25 -4 -28
-10z"/>
<path d="M3590 4538 c0 -12 24 -62 37 -76 11 -11 13 -9 13 10 1 21 2 22 14 6
15 -21 40 -24 34 -5 -3 6 -19 17 -36 22 -18 6 -38 20 -47 30 -8 11 -15 17 -15
13z"/>
<path d="M1534 4508 l-19 -23 23 19 c21 18 27 26 19 26 -2 0 -12 -10 -23 -22z"/>
<path d="M3165 4520 c-4 -6 -17 -15 -29 -20 -12 -5 -15 -9 -6 -9 18 0 56 27
48 35 -3 3 -9 0 -13 -6z"/>
<path d="M3277 4511 c-3 -14 -1 -18 9 -14 16 6 18 19 5 27 -5 3 -11 -3 -14
-13z"/>
<path d="M626 4478 c-7 -18 -23 -44 -35 -57 -11 -13 -21 -32 -21 -41 0 -10 -7
-23 -15 -30 -8 -7 -15 -21 -15 -31 0 -11 -4 -19 -8 -19 -9 0 -43 -72 -37 -78
2 -2 12 12 22 32 50 99 78 151 84 156 15 12 59 100 49 100 -5 0 -16 -15 -24
-32z"/>
<path d="M950 4500 c0 -5 5 -10 10 -10 6 0 10 5 10 10 0 6 -4 10 -10 10 -5 0
-10 -4 -10 -10z"/>
<path d="M1098 4503 c-10 -2 -18 -9 -18 -14 0 -14 16 -11 30 6 7 8 11 14 9 14
-2 -1 -12 -3 -21 -6z"/>
<path d="M2905 4501 c-11 -5 -29 -18 -39 -30 -13 -15 -26 -19 -40 -15 -15 5
-13 1 9 -19 29 -24 51 -29 27 -5 -9 9 -1 20 35 45 45 32 48 40 8 24z"/>
<path d="M5140 4502 c0 -5 11 -8 25 -8 35 2 39 11 5 14 -17 1 -30 -2 -30 -6z"/>
<path d="M855 4489 c-6 -9 -2 -11 13 -7 12 4 25 2 28 -3 3 -5 13 -9 22 -9 23
0 3 17 -29 25 -17 4 -30 2 -34 -6z"/>
<path d="M2720 4490 c-12 -8 -11 -10 8 -10 12 0 22 5 22 10 0 13 -11 13 -30 0z"/>
<path d="M2950 4485 c-14 -8 -20 -14 -15 -14 6 0 21 6 35 14 14 8 21 14 15 14
-5 0 -21 -6 -35 -14z"/>
<path d="M3018 4493 c7 -3 16 -2 19 1 4 3 -2 6 -13 5 -11 0 -14 -3 -6 -6z"/>
<path d="M3707 4484 c3 -7 9 -14 14 -14 5 0 9 -6 9 -14 0 -7 7 -19 15 -26 20
-16 19 -5 -2 31 -18 30 -46 49 -36 23z"/>
<path d="M2835 4480 c-3 -5 -1 -10 4 -10 6 0 11 5 11 10 0 6 -2 10 -4 10 -3 0
-8 -4 -11 -10z"/>
<path d="M3196 4481 c-3 -4 6 -6 19 -3 14 2 25 6 25 8 0 8 -39 4 -44 -5z"/>
<path d="M3420 4480 c0 -5 5 -10 10 -10 6 0 10 5 10 10 0 6 -4 10 -10 10 -5 0
-10 -4 -10 -10z"/>
<path d="M3497 4470 c-3 -11 -1 -20 4 -20 5 0 9 9 9 20 0 11 -2 20 -4 20 -2 0
-6 -9 -9 -20z"/>
<path d="M3530 4480 c0 -5 5 -10 10 -10 6 0 10 5 10 10 0 6 -4 10 -10 10 -5 0
-10 -4 -10 -10z"/>
<path d="M2660 4472 c0 -19 29 -27 43 -12 10 10 8 12 -7 6 -12 -4 -23 -1 -28
6 -6 11 -8 11 -8 0z"/>
<path d="M3150 4470 c0 -5 7 -7 15 -4 8 4 15 8 15 10 0 2 -7 4 -15 4 -8 0 -15
-4 -15 -10z"/>
<path d="M3246 4458 c-11 -10 -15 -18 -10 -18 6 0 15 5 22 12 9 9 12 9 12 0 0
-7 10 -12 23 -11 14 0 17 2 7 6 -8 3 -19 11 -25 18 -8 9 -14 7 -29 -7z"/>
<path d="M3330 4469 c0 -5 5 -7 10 -4 6 3 10 8 10 11 0 2 -4 4 -10 4 -5 0 -10
-5 -10 -11z"/>
<path d="M3465 4470 c3 -5 8 -10 11 -10 2 0 4 5 4 10 0 6 -5 10 -11 10 -5 0
-7 -4 -4 -10z"/>
<path d="M2628 4463 c7 -3 16 -2 19 1 4 3 -2 6 -13 5 -11 0 -14 -3 -6 -6z"/>
<path d="M3108 4463 c6 -2 18 -2 25 0 6 3 1 5 -13 5 -14 0 -19 -2 -12 -5z"/>
<path d="M3350 4445 c-7 -9 -32 -20 -56 -26 -24 -6 -44 -16 -44 -21 0 -12 31
-3 105 33 47 22 54 29 34 29 -15 0 -32 -7 -39 -15z"/>
<path d="M3030 4439 c0 -5 5 -7 10 -4 6 3 10 8 10 11 0 2 -4 4 -10 4 -5 0 -10
-5 -10 -11z"/>
<path d="M3075 4440 c-19 -8 -19 -9 3 -9 12 -1 22 4 22 9 0 6 -1 10 -2 9 -2 0
-12 -4 -23 -9z"/>
<path d="M3605 4440 c3 -5 11 -10 16 -10 6 0 7 5 4 10 -3 6 -11 10 -16 10 -6
0 -7 -4 -4 -10z"/>
<path d="M3685 4440 c-4 -6 -14 -9 -24 -6 -12 5 -11 2 4 -9 17 -14 20 -14 28
1 10 18 3 31 -8 14z"/>
<path d="M3125 4430 c-3 -5 -1 -10 4 -10 6 0 11 5 11 10 0 6 -2 10 -4 10 -3 0
-8 -4 -11 -10z"/>
<path d="M2500 4420 c-13 -8 -12 -10 3 -10 9 0 17 5 17 10 0 12 -1 12 -20 0z"/>
<path d="M2613 4416 c-13 -6 -23 -17 -23 -25 0 -10 3 -11 13 -2 8 6 16 9 18 6
3 -2 10 5 17 15 13 22 8 23 -25 6z"/>
<path d="M3397 4416 c-4 -10 -1 -13 8 -10 8 3 26 -4 41 -15 15 -12 31 -21 37
-21 5 0 -7 14 -28 30 -43 34 -51 36 -58 16z"/>
<path d="M3458 4423 c7 -3 16 -2 19 1 4 3 -2 6 -13 5 -11 0 -14 -3 -6 -6z"/>
<path d="M746 4405 c-9 -26 -7 -32 5 -12 6 10 9 21 6 23 -2 3 -7 -2 -11 -11z"/>
<path d="M868 4413 c7 -3 16 -2 19 1 4 3 -2 6 -13 5 -11 0 -14 -3 -6 -6z"/>
<path d="M3555 4410 c-3 -5 -1 -10 4 -10 6 0 11 5 11 10 0 6 -2 10 -4 10 -3 0
-8 -4 -11 -10z"/>
<path d="M3590 4410 c0 -5 5 -10 10 -10 6 0 10 5 10 10 0 6 -4 10 -10 10 -5 0
-10 -4 -10 -10z"/>
<path d="M1420 4378 c-15 -21 -17 -28 -6 -19 16 13 41 51 33 51 -2 0 -14 -15
-27 -32z"/>
<path d="M2768 4395 c13 -9 26 -14 29 -11 8 8 3 12 -27 21 l-25 7 23 -17z"/>
<path d="M3095 4400 c3 -5 14 -10 23 -10 15 0 15 2 2 10 -20 13 -33 13 -25 0z"/>
<path d="M3758 4385 c2 -14 6 -25 8 -25 2 0 4 11 4 25 0 14 -4 25 -9 25 -4 0
-6 -11 -3 -25z"/>
<path d="M5410 4405 c0 -5 5 -17 10 -25 5 -8 10 -10 10 -5 0 6 -5 17 -10 25
-5 8 -10 11 -10 5z"/>
<path d="M2540 4375 c-5 -14 -15 -25 -23 -25 -21 0 -171 -75 -186 -93 -7 -10
-22 -17 -32 -17 -10 0 -21 -5 -24 -10 -11 -17 46 1 80 25 26 19 69 41 175 89
15 7 25 21 26 34 2 29 -4 28 -16 -3z"/>
<path d="M2650 4392 c0 -5 14 -7 30 -4 17 2 30 6 30 8 0 2 -13 4 -30 4 -16 0
-30 -4 -30 -8z"/>
<path d="M2894 4389 c-3 -6 -1 -16 5 -22 8 -8 11 -5 11 11 0 24 -5 28 -16 11z"/>
<path d="M2931 4395 c13 -13 67 -22 80 -14 8 5 10 9 4 10 -5 0 -28 3 -50 5
-21 3 -37 2 -34 -1z"/>
<path d="M3160 4382 c0 -12 3 -12 15 -2 8 7 15 13 15 15 0 1 -7 2 -15 2 -8 0
-15 -7 -15 -15z"/>
<path d="M3625 4390 c3 -5 8 -10 11 -10 2 0 4 5 4 10 0 6 -5 10 -11 10 -5 0
-7 -4 -4 -10z"/>
<path d="M3800 4374 c0 -8 5 -12 10 -9 6 3 10 10 10 16 0 5 -4 9 -10 9 -5 0
-10 -7 -10 -16z"/>
<path d="M2485 4370 c3 -5 11 -10 16 -10 6 0 7 5 4 10 -3 6 -11 10 -16 10 -6
0 -7 -4 -4 -10z"/>
<path d="M2693 4370 c-13 -5 -23 -14 -23 -20 0 -7 7 -7 22 1 12 6 33 15 47 20
l26 7 -25 1 c-14 0 -35 -4 -47 -9z"/>
<path d="M3252 4372 c-25 -7 -31 -24 -11 -31 7 -2 9 1 4 9 -6 10 -1 11 21 7
16 -3 23 -4 16 -1 -6 3 -10 10 -6 15 3 5 4 9 2 8 -2 -1 -13 -4 -26 -7z"/>
<path d="M3940 4365 c0 -9 6 -12 15 -9 8 4 15 7 15 9 0 2 -7 5 -15 9 -9 3 -15
0 -15 -9z"/>
<path d="M960 4360 c-18 -12 -2 -12 25 0 13 6 15 9 5 9 -8 0 -22 -4 -30 -9z"/>
<path d="M2600 4360 c0 -6 7 -10 15 -10 8 0 15 -6 15 -14 0 -15 21 -26 48 -26
14 1 13 3 -3 12 -11 6 -24 17 -30 23 -14 17 -45 27 -45 15z"/>
<path d="M2830 4360 c8 -5 22 -9 30 -9 10 0 8 3 -5 9 -27 12 -43 12 -25 0z"/>
<path d="M3580 4360 c0 -5 7 -10 16 -10 8 0 12 5 9 10 -3 6 -10 10 -16 10 -5
0 -9 -4 -9 -10z"/>
<path d="M3888 4363 c7 -3 16 -2 19 1 4 3 -2 6 -13 5 -11 0 -14 -3 -6 -6z"/>
<path d="M700 4345 c0 -8 2 -15 4 -15 2 0 6 7 10 15 3 8 1 15 -4 15 -6 0 -10
-7 -10 -15z"/>
<path d="M2773 4353 c9 -2 23 -2 30 0 6 3 -1 5 -18 5 -16 0 -22 -2 -12 -5z"/>
<path d="M3997 4349 c7 -7 15 -10 18 -7 3 3 -2 9 -12 12 -14 6 -15 5 -6 -5z"/>
<path d="M3385 4340 c3 -5 8 -10 11 -10 2 0 4 5 4 10 0 6 -5 10 -11 10 -5 0
-7 -4 -4 -10z"/>
<path d="M3430 4339 c0 -5 9 -9 20 -9 11 0 20 2 20 4 0 2 -9 6 -20 9 -11 3
-20 1 -20 -4z"/>
<path d="M4032 4327 c-1 -15 6 -26 21 -32 12 -6 29 -25 37 -42 8 -18 18 -33
23 -33 13 0 8 17 -14 44 -12 15 -20 29 -18 31 7 7 60 -45 55 -54 -3 -4 1 -17
10 -27 14 -18 15 -17 9 14 -7 32 -87 122 -110 122 -6 0 -11 -10 -13 -23z m48
-18 c0 -5 -9 -4 -19 3 -11 7 -17 16 -14 20 5 10 33 -10 33 -23z"/>
<path d="M5452 4330 c0 -14 2 -19 5 -12 2 6 2 18 0 25 -3 6 -5 1 -5 -13z"/>
<path d="M2398 4333 c7 -3 16 -2 19 1 4 3 -2 6 -13 5 -11 0 -14 -3 -6 -6z"/>
<path d="M2880 4336 c0 -2 7 -9 15 -16 9 -7 15 -8 15 -2 0 5 -7 12 -15 16 -8
3 -15 4 -15 2z"/>
<path d="M3770 4331 c0 -5 7 -11 15 -15 8 -3 15 -1 15 3 0 5 -7 11 -15 15 -8
3 -15 1 -15 -3z"/>
<path d="M3860 4325 c-17 -10 -20 -14 -9 -15 9 0 22 7 29 15 15 18 12 18 -20
0z"/>
<path d="M968 4323 c6 -2 18 -2 25 0 6 3 1 5 -13 5 -14 0 -19 -2 -12 -5z"/>
<path d="M2555 4320 c-3 -5 1 -10 9 -10 9 0 16 5 16 10 0 6 -4 10 -9 10 -6 0
-13 -4 -16 -10z"/>
<path d="M2700 4319 c0 -5 5 -7 10 -4 6 3 10 8 10 11 0 2 -4 4 -10 4 -5 0 -10
-5 -10 -11z"/>
<path d="M2365 4310 c-4 -6 -10 -8 -15 -5 -5 3 -11 1 -15 -5 -3 -5 0 -10 7
-10 18 0 57 29 41 30 -6 0 -15 -5 -18 -10z"/>
<path d="M3075 4310 c-3 -5 -2 -10 4 -10 5 0 13 5 16 10 3 6 2 10 -4 10 -5 0
-13 -4 -16 -10z"/>
<path d="M758 4303 c7 -3 16 -2 19 1 4 3 -2 6 -13 5 -11 0 -14 -3 -6 -6z"/>
<path d="M3982 4298 c3 -7 13 -13 24 -14 16 -1 16 0 1 3 -9 3 -15 9 -12 14 4
5 1 9 -5 9 -7 0 -10 -6 -8 -12z"/>
<path d="M2615 4290 c3 -5 13 -10 21 -10 8 0 14 5 14 10 0 6 -9 10 -21 10 -11
0 -17 -4 -14 -10z"/>
<path d="M3110 4290 c-9 -6 -10 -10 -3 -10 6 0 15 5 18 10 8 12 4 12 -15 0z"/>
<path d="M3720 4290 c-48 -9 -100 -26 -100 -34 0 -3 19 1 41 9 52 19 93 20 83
3 -4 -7 3 -4 17 7 13 11 26 21 28 22 6 4 -19 2 -69 -7z"/>
<path d="M2436 4282 c-2 -4 13 -8 34 -7 21 0 36 3 33 8 -6 10 -61 9 -67 -1z"/>
<path d="M3420 4282 c0 -5 7 -13 16 -16 10 -4 14 -1 12 6 -5 15 -28 23 -28 10z"/>
<path d="M2760 4270 c-9 -6 -10 -10 -3 -10 6 0 15 5 18 10 8 12 4 12 -15 0z"/>
<path d="M3940 4270 c0 -6 9 -10 19 -10 11 0 22 -5 24 -10 3 -6 4 -5 3 1 -3
15 -46 32 -46 19z"/>
<path d="M2905 4261 c-3 -5 -1 -12 5 -16 5 -3 10 1 10 9 0 18 -6 21 -15 7z"/>
<path d="M2225 4234 c-16 -14 -21 -21 -10 -15 30 14 61 40 50 41 -5 0 -23 -12
-40 -26z"/>
<path d="M2446 4245 c4 -8 10 -15 15 -15 5 0 9 7 9 15 0 8 -7 15 -15 15 -9 0
-12 -6 -9 -15z"/>
<path d="M2958 4253 c7 -3 16 -2 19 1 4 3 -2 6 -13 5 -11 0 -14 -3 -6 -6z"/>
<path d="M3530 4249 c0 -5 5 -7 10 -4 6 3 10 8 10 11 0 2 -4 4 -10 4 -5 0 -10
-5 -10 -11z"/>
<path d="M3771 4244 c0 -11 3 -14 6 -6 3 7 2 16 -1 19 -3 4 -6 -2 -5 -13z"/>
<path d="M935 4240 c3 -5 13 -10 21 -10 8 0 12 5 9 10 -3 6 -13 10 -21 10 -8
0 -12 -4 -9 -10z"/>
<path d="M4032 4234 c-10 -12 -10 -14 2 -14 17 0 30 16 19 23 -5 3 -14 -1 -21
-9z"/>
<path d="M2371 4236 c2 -2 20 -6 39 -10 25 -4 31 -3 20 4 -14 9 -69 15 -59 6z"/>
<path d="M3928 4233 c7 -3 16 -2 19 1 4 3 -2 6 -13 5 -11 0 -14 -3 -6 -6z"/>
<path d="M590 4220 c1 -32 74 -95 121 -104 13 -2 37 -9 52 -15 35 -14 47 -14
47 0 0 5 -4 8 -8 5 -4 -2 -21 1 -37 9 -17 7 -47 20 -68 30 -21 9 -54 33 -73
53 -20 21 -34 30 -34 22z"/>
<path d="M2665 4220 c3 -5 12 -10 20 -10 8 0 17 5 20 10 4 6 -5 10 -20 10 -15
0 -24 -4 -20 -10z"/>
<path d="M2970 4220 c-9 -6 -10 -10 -3 -10 6 0 15 5 18 10 8 12 4 12 -15 0z"/>
<path d="M3579 4211 c22 -20 41 -20 41 0 0 6 -4 7 -10 4 -5 -3 -20 -1 -32 5
-23 11 -23 11 1 -9z"/>
<path d="M3710 4222 c0 -4 9 -8 19 -8 11 0 17 4 15 8 -3 4 -12 8 -20 8 -8 0
-14 -4 -14 -8z"/>
<path d="M3836 4206 c3 -8 13 -17 22 -21 13 -5 13 -2 -3 15 -21 24 -26 25 -19
6z"/>
<path d="M4175 4210 c3 -5 14 -10 23 -10 15 0 15 2 2 10 -20 13 -33 13 -25 0z"/>
<path d="M465 4170 c-25 -55 -15 -59 12 -4 12 24 18 44 14 44 -4 0 -16 -18
-26 -40z"/>
<path d="M2845 4200 c-3 -4 6 -10 20 -12 14 -3 25 -2 25 2 0 11 -39 20 -45 10z"/>
<path d="M4220 4201 c0 -5 5 -13 10 -16 6 -3 10 -2 10 4 0 5 -4 13 -10 16 -5
3 -10 2 -10 -4z"/>
<path d="M2167 4181 c-10 -12 -9 -13 8 -3 12 6 27 7 35 2 9 -5 20 -3 27 5 10
10 5 13 -23 12 -19 -1 -40 -8 -47 -16z"/>
<path d="M2810 4190 c0 -6 -14 -17 -31 -24 -27 -11 -29 -14 -11 -18 14 -4 26
3 41 23 12 16 17 29 11 29 -5 0 -10 -5 -10 -10z"/>
<path d="M3188 4193 c7 -3 16 -2 19 1 4 3 -2 6 -13 5 -11 0 -14 -3 -6 -6z"/>
<path d="M5473 4195 c28 -60 53 -118 69 -154 10 -24 21 -41 25 -37 4 3 1 12
-5 18 -7 7 -12 18 -12 26 0 18 -44 112 -65 137 -9 11 -14 16 -12 10z"/>
<path d="M2110 4167 c-15 -12 -33 -31 -40 -43 -8 -11 -3 -7 11 8 29 32 36 34
41 13 2 -10 7 -12 18 -5 13 8 13 11 1 19 -7 5 -10 14 -7 20 11 17 4 13 -24
-12z"/>
<path d="M2273 4183 c9 -2 23 -2 30 0 6 3 -1 5 -18 5 -16 0 -22 -2 -12 -5z"/>
<path d="M2410 4174 c0 -8 5 -12 10 -9 6 4 8 11 5 16 -9 14 -15 11 -15 -7z"/>
<path d="M2715 4180 c-3 -5 -1 -10 4 -10 6 0 11 5 11 10 0 6 -2 10 -4 10 -3 0
-8 -4 -11 -10z"/>
<path d="M4256 4181 c-3 -5 1 -11 9 -14 9 -4 12 -1 8 9 -6 16 -10 17 -17 5z"/>
<path d="M2449 4163 c-13 -15 -12 -15 9 -4 23 12 28 21 13 21 -5 0 -15 -7 -22
-17z"/>
<path d="M3557 4173 c-4 -3 -23 -6 -44 -5 -27 1 -34 -1 -26 -9 13 -13 83 -3
83 11 0 12 -4 13 -13 3z"/>
<path d="M3945 4170 c19 -8 103 -14 94 -6 -2 2 -29 6 -59 9 -36 4 -48 3 -35
-3z"/>
<path d="M4050 4169 c0 -5 14 -9 32 -9 36 0 32 10 -6 14 -14 2 -26 -1 -26 -5z"/>
<path d="M4143 4173 c4 -6 -7 -16 -26 -23 -26 -10 -28 -14 -13 -17 10 -3 29
-16 41 -29 12 -13 25 -21 28 -17 10 9 9 25 0 20 -5 -3 -16 3 -26 13 -16 16
-16 18 -1 30 10 9 18 10 22 3 8 -12 45 -11 52 2 3 6 -6 10 -20 11 -14 1 -34 5
-44 9 -13 6 -17 5 -13 -2z"/>
<path d="M1186 4124 c-14 -26 -26 -49 -26 -51 0 -3 -15 -38 -34 -77 -19 -40
-47 -111 -63 -157 -15 -46 -31 -86 -35 -89 -4 -3 -10 -21 -13 -40 -3 -19 -15
-68 -26 -110 -37 -136 -51 -258 -52 -445 -1 -243 25 -407 99 -634 76 -233 203
-470 349 -651 77 -96 238 -261 312 -321 132 -106 333 -225 473 -278 30 -12 64
-26 75 -31 46 -22 238 -71 355 -90 69 -12 198 -23 290 -27 175 -6 298 9 480
58 142 38 348 127 445 192 22 15 56 38 75 51 67 44 243 221 306 306 62 83 149
245 174 325 7 22 15 45 19 50 3 6 7 15 8 20 65 253 78 358 70 550 -10 224 -57
406 -153 593 -217 422 -609 690 -1052 722 -129 9 -229 0 -340 -30 -364 -97
-626 -350 -714 -690 -25 -98 -29 -253 -9 -360 16 -84 77 -240 103 -262 11 -10
17 -18 14 -18 -4 0 -2 -9 4 -20 6 -11 17 -20 25 -20 9 0 15 -10 15 -24 0 -18
5 -24 20 -23 18 1 18 3 -5 32 -13 16 -29 29 -35 27 -6 -1 -9 2 -6 7 4 5 -8 33
-25 62 -64 110 -111 311 -103 447 15 250 167 513 384 667 223 157 547 219 835
160 361 -75 691 -335 868 -685 132 -261 179 -529 142 -825 -21 -177 -57 -308
-128 -466 -33 -74 -125 -214 -183 -281 -25 -29 -56 -64 -68 -78 -49 -55 -156
-145 -248 -206 -53 -35 -99 -64 -101 -64 -3 0 -44 -18 -91 -40 -47 -22 -92
-40 -99 -40 -7 0 -17 -4 -23 -9 -12 -11 -134 -45 -259 -72 -142 -30 -390 -37
-550 -15 -176 25 -361 71 -470 116 -41 18 -291 141 -310 153 -59 37 -112 74
-130 89 -11 9 -47 39 -80 66 -54 44 -204 191 -230 224 -5 8 -26 32 -45 54 -60
70 -85 101 -99 125 -8 13 -32 53 -54 88 -50 83 -122 219 -132 251 -4 14 -20
53 -36 87 -16 34 -29 67 -29 73 0 6 -4 18 -9 28 -5 9 -19 53 -31 97 -12 44
-26 88 -31 97 -5 10 -9 35 -9 55 0 21 -4 54 -9 73 -17 62 -25 171 -25 315 1
192 8 272 39 398 14 60 27 122 28 138 1 16 5 29 10 29 4 0 6 3 5 8 -1 4 6 24
15 46 9 21 17 42 17 47 0 5 4 17 9 27 5 9 19 42 31 72 39 93 82 184 95 200 17
21 26 50 16 50 -5 0 -21 -21 -35 -46z"/>
<path d="M586 4142 c6 -4 13 -15 17 -24 3 -10 12 -15 21 -12 7 3 23 -5 35 -17
14 -15 24 -20 31 -13 7 7 -4 18 -35 33 -25 12 -45 27 -45 32 0 5 -8 9 -17 9
-11 0 -14 -3 -7 -8z"/>
<path d="M3783 4139 c11 -6 47 -13 80 -15 l62 -4 -70 14 c-86 18 -95 18 -72 5z"/>
<path d="M4299 4123 c26 -38 49 -56 33 -27 -6 11 -20 28 -33 39 l-23 20 23
-32z"/>
<path d="M2170 4130 c0 -5 14 -14 30 -22 17 -7 30 -15 30 -18 0 -3 9 -6 21 -6
16 0 17 2 7 11 -8 5 -12 19 -10 30 4 20 4 20 -17 1 -11 -11 -21 -14 -21 -9 0
6 -9 13 -20 16 -11 3 -20 1 -20 -3z"/>
<path d="M2608 4133 c7 -3 16 -2 19 1 4 3 -2 6 -13 5 -11 0 -14 -3 -6 -6z"/>
<path d="M2705 4130 c-8 -13 5 -13 25 0 13 8 13 10 -2 10 -9 0 -20 -4 -23 -10z"/>
<path d="M2800 4129 c0 -5 9 -9 20 -9 11 0 20 2 20 4 0 2 -9 6 -20 9 -11 3
-20 1 -20 -4z"/>
<path d="M3700 4120 c0 -5 5 -10 10 -10 6 0 10 5 10 10 0 6 -4 10 -10 10 -5 0
-10 -4 -10 -10z"/>
<path d="M2042 4058 c-34 -34 -59 -64 -56 -67 3 -3 11 1 18 9 6 8 20 20 31 26
11 6 20 16 20 22 0 5 12 20 27 31 25 20 27 20 37 4 5 -10 13 -14 18 -9 4 5 2
11 -4 13 -19 7 -16 21 5 26 11 3 8 5 -9 6 -19 1 -41 -15 -87 -61z"/>
<path d="M2280 4110 c0 -6 7 -13 15 -17 24 -9 27 1 5 15 -13 8 -20 8 -20 2z"/>
<path d="M431 4092 c-6 -12 -11 -26 -11 -32 0 -6 -7 -18 -15 -26 -8 -9 -15
-25 -15 -38 0 -12 -5 -27 -11 -33 -6 -6 -9 -17 -7 -24 5 -16 34 37 58 111 19
56 20 77 1 42z"/>
<path d="M3598 4093 c7 -3 16 -2 19 1 4 3 -2 6 -13 5 -11 0 -14 -3 -6 -6z"/>
<path d="M3858 4093 c7 -3 16 -2 19 1 4 3 -2 6 -13 5 -11 0 -14 -3 -6 -6z"/>
<path d="M3947 4089 c7 -7 15 -10 18 -7 3 3 -2 9 -12 12 -14 6 -15 5 -6 -5z"/>
<path d="M4065 4090 c3 -5 8 -10 11 -10 2 0 4 5 4 10 0 6 -5 10 -11 10 -5 0
-7 -4 -4 -10z"/>
<path d="M4208 4093 c7 -3 16 -2 19 1 4 3 -2 6 -13 5 -11 0 -14 -3 -6 -6z"/>
<path d="M4380 4096 c0 -2 7 -7 16 -10 8 -3 12 -2 9 4 -6 10 -25 14 -25 6z"/>
<path d="M830 4080 c0 -5 10 -10 23 -10 18 0 19 2 7 10 -19 13 -30 13 -30 0z"/>
<path d="M2540 4070 c13 -24 17 -25 17 -5 0 8 -6 16 -14 19 -11 4 -11 1 -3
-14z"/>
<path d="M2600 4080 c-13 -8 -12 -10 3 -10 9 0 17 5 17 10 0 12 -1 12 -20 0z"/>
<path d="M4008 4083 c7 -3 16 -2 19 1 4 3 -2 6 -13 5 -11 0 -14 -3 -6 -6z"/>
<path d="M906 4071 c15 -16 89 -28 80 -13 -3 6 -14 10 -24 10 -9 -1 -28 2 -42
6 -19 6 -22 5 -14 -3z"/>
<path d="M1088 4073 c7 -3 16 -2 19 1 4 3 -2 6 -13 5 -11 0 -14 -3 -6 -6z"/>
<path d="M2198 4073 c7 -3 16 -2 19 1 4 3 -2 6 -13 5 -11 0 -14 -3 -6 -6z"/>
<path d="M2735 4070 c-3 -5 -1 -10 4 -10 6 0 11 5 11 10 0 6 -2 10 -4 10 -3 0
-8 -4 -11 -10z"/>
<path d="M635 4060 c3 -5 8 -10 11 -10 2 0 4 5 4 10 0 6 -5 10 -11 10 -5 0 -7
-4 -4 -10z"/>
<path d="M740 4060 c0 -5 5 -10 11 -10 5 0 7 5 4 10 -3 6 -8 10 -11 10 -2 0
-4 -4 -4 -10z"/>
<path d="M3840 4066 c0 -2 7 -6 15 -10 8 -3 15 -1 15 4 0 6 -7 10 -15 10 -8 0
-15 -2 -15 -4z"/>
<path d="M4135 4060 c3 -5 11 -10 16 -10 6 0 7 5 4 10 -3 6 -11 10 -16 10 -6
0 -7 -4 -4 -10z"/>
<path d="M4198 4063 c7 -3 16 -2 19 1 4 3 -2 6 -13 5 -11 0 -14 -3 -6 -6z"/>
<path d="M4411 4053 c7 -12 15 -20 18 -17 3 2 -3 12 -13 22 -17 16 -18 16 -5
-5z"/>
<path d="M2690 4050 c0 -5 5 -10 11 -10 5 0 7 5 4 10 -3 6 -8 10 -11 10 -2 0
-4 -4 -4 -10z"/>
<path d="M3970 4040 c-25 -11 -38 -19 -30 -19 8 0 33 8 55 18 51 25 34 25 -25
1z"/>
<path d="M685 4040 c-3 -5 3 -10 14 -10 12 0 21 5 21 10 0 6 -6 10 -14 10 -8
0 -18 -4 -21 -10z"/>
<path d="M795 4040 c-4 -6 6 -10 22 -10 22 0 25 2 13 10 -19 12 -27 12 -35 0z"/>
<path d="M1000 4040 c0 -5 5 -10 10 -10 6 0 10 5 10 10 0 6 -4 10 -10 10 -5 0
-10 -4 -10 -10z"/>
<path d="M2448 4043 c7 -3 16 -2 19 1 4 3 -2 6 -13 5 -11 0 -14 -3 -6 -6z"/>
<path d="M2500 4040 c0 -5 5 -10 10 -10 6 0 10 5 10 10 0 6 -4 10 -10 10 -5 0
-10 -4 -10 -10z"/>
<path d="M2760 4038 c0 -11 57 -10 64 1 3 5 -10 9 -29 8 -19 -1 -35 -5 -35 -9z"/>
<path d="M4184 4036 c11 -9 24 -16 30 -16 12 0 7 5 -24 19 -24 11 -24 11 -6
-3z"/>
<path d="M4301 4041 c-11 -7 -9 -10 8 -16 13 -4 25 -4 28 -1 4 3 -1 6 -11 6
-9 0 -14 5 -11 10 8 12 4 12 -14 1z"/>
<path d="M757 4019 c4 -13 8 -18 11 -10 2 7 -1 18 -6 23 -8 8 -9 4 -5 -13z"/>
<path d="M875 4030 c-13 -5 -14 -9 -5 -9 8 0 24 4 35 9 13 5 14 9 5 9 -8 0
-24 -4 -35 -9z"/>
<path d="M4100 4030 c14 -4 32 -8 40 -9 13 -1 13 0 0 9 -8 5 -26 9 -40 9 l-25
-1 25 -8z"/>
<path d="M550 4026 c0 -2 7 -7 16 -10 8 -3 12 -2 9 4 -6 10 -25 14 -25 6z"/>
<path d="M2080 4014 c0 -8 5 -12 10 -9 6 3 10 10 10 16 0 5 -4 9 -10 9 -5 0
-10 -7 -10 -16z"/>
<path d="M2130 4020 c13 -8 12 -11 -5 -24 -12 -10 -15 -15 -7 -16 23 0 42 26
29 39 -6 6 -16 11 -21 11 -6 0 -4 -5 4 -10z"/>
<path d="M2390 4026 c0 -9 40 -13 46 -5 3 5 -6 9 -20 9 -14 0 -26 -2 -26 -4z"/>
<path d="M3233 4023 c9 -2 25 -2 35 0 9 3 1 5 -18 5 -19 0 -27 -2 -17 -5z"/>
<path d="M945 4010 c3 -5 11 -10 16 -10 6 0 7 5 4 10 -3 6 -11 10 -16 10 -6 0
-7 -4 -4 -10z"/>
<path d="M2178 4013 c7 -3 16 -2 19 1 4 3 -2 6 -13 5 -11 0 -14 -3 -6 -6z"/>
<path d="M2324 4005 c-25 -19 -4 -19 32 0 24 12 26 15 8 15 -11 0 -29 -7 -40
-15z"/>
<path d="M2640 4010 c-8 -5 -11 -12 -8 -16 4 -3 14 1 23 10 18 17 9 21 -15 6z"/>
<path d="M3735 4010 c3 -5 8 -10 11 -10 2 0 4 5 4 10 0 6 -5 10 -11 10 -5 0
-7 -4 -4 -10z"/>
<path d="M3940 3989 c0 -5 9 -9 20 -9 11 0 20 2 20 4 0 2 -9 6 -20 9 -11 3
-20 1 -20 -4z"/>
<path d="M4475 3980 c-3 -5 -1 -10 4 -10 6 0 11 5 11 10 0 6 -2 10 -4 10 -3 0
-8 -4 -11 -10z"/>
<path d="M5570 3987 c0 -13 42 -118 46 -115 2 2 -6 29 -17 59 -20 52 -29 70
-29 56z"/>
<path d="M890 3974 c0 -3 7 -12 15 -20 13 -13 15 -13 15 -1 0 8 -7 17 -15 21
-8 3 -15 3 -15 0z"/>
<path d="M2233 3967 c-24 -6 -43 -14 -43 -19 0 -9 36 -5 46 5 4 4 15 7 25 7
10 0 21 5 24 10 7 11 7 11 -52 -3z"/>
<path d="M2328 3963 c7 -3 16 -2 19 1 4 3 -2 6 -13 5 -11 0 -14 -3 -6 -6z"/>
<path d="M4500 3956 c0 -17 16 -30 23 -19 3 5 -1 14 -9 21 -12 10 -14 10 -14
-2z"/>
<path d="M1910 3948 c0 -6 3 -8 7 -5 3 4 13 1 22 -6 14 -11 14 -10 2 6 -15 20
-31 22 -31 5z"/>
<path d="M1966 3952 c-3 -5 0 -9 7 -10 7 0 22 -4 35 -7 18 -6 21 -4 16 9 -6
17 -49 22 -58 8z"/>
<path d="M3980 3942 c0 -10 4 -12 13 -4 6 5 21 12 32 15 11 3 6 5 -12 4 -21
-1 -33 -6 -33 -15z"/>
<path d="M4200 3956 c0 -2 7 -6 15 -10 8 -3 15 -1 15 4 0 6 -7 10 -15 10 -8 0
-15 -2 -15 -4z"/>
<path d="M4294 3945 c11 -8 24 -15 30 -15 5 0 1 7 -10 15 -10 8 -23 14 -29 14
-5 0 -1 -6 9 -14z"/>
<path d="M745 3940 c3 -5 8 -10 11 -10 2 0 4 5 4 10 0 6 -5 10 -11 10 -5 0 -7
-4 -4 -10z"/>
<path d="M2450 3940 c-13 -8 -13 -10 2 -10 9 0 18 -4 20 -9 2 -4 12 0 22 10
19 19 19 19 -5 19 -13 0 -31 -5 -39 -10z"/>
<path d="M2560 3940 c-8 -5 -11 -12 -7 -16 4 -4 13 -2 19 4 15 15 7 24 -12 12z"/>
<path d="M2990 3923 c-110 -19 -222 -63 -335 -129 -214 -126 -371 -353 -413
-595 -14 -83 -15 -113 -5 -201 13 -116 28 -168 80 -278 44 -92 156 -208 250
-258 125 -66 293 -89 418 -57 129 34 254 133 304 240 25 53 38 151 27 208 -9
51 -64 127 -102 143 -39 16 -92 18 -114 4 -10 -6 -11 -10 -2 -10 6 0 12 -12
12 -26 0 -33 -21 -104 -30 -104 -4 0 -10 -8 -12 -17 -6 -21 -75 -60 -123 -69
-39 -7 -52 -19 -31 -27 7 -3 35 6 62 19 27 13 54 22 62 19 7 -2 10 0 7 5 -6
10 9 15 30 10 6 -1 7 2 3 6 -4 4 0 13 10 20 12 10 13 13 3 14 -11 0 -11 3 -1
15 16 19 50 86 41 80 -4 -2 -7 12 -7 30 1 23 6 35 15 35 20 0 81 -23 81 -30 0
-3 9 -15 19 -27 68 -72 76 -186 21 -299 -19 -38 -46 -76 -67 -92 -19 -15 -49
-39 -65 -54 -17 -14 -50 -32 -74 -38 -24 -7 -44 -16 -44 -19 0 -7 -12 -9 -70
-12 -16 -1 -30 -6 -30 -9 0 -4 -11 -7 -25 -7 -14 0 -25 3 -25 8 0 4 -14 4 -31
-1 -18 -5 -37 -6 -43 -2 -6 3 -19 8 -28 9 -10 2 -26 4 -35 6 -10 1 -22 5 -28
8 -5 3 -36 14 -67 24 -32 11 -58 25 -58 31 0 7 -14 17 -32 23 -17 6 -39 18
-47 26 -9 9 -26 24 -39 35 -13 10 -23 21 -23 24 1 3 -2 6 -5 5 -4 0 -16 13
-26 30 -11 17 -24 31 -29 31 -4 0 -6 7 -3 15 4 9 -1 18 -11 21 -12 5 -13 9 -4
14 8 6 5 11 -10 19 -11 7 -21 20 -21 31 0 11 -9 36 -20 55 -11 20 -15 33 -8
29 10 -6 11 -5 1 8 -7 8 -10 18 -6 22 4 4 2 11 -5 15 -10 6 -26 113 -24 159 1
6 1 41 2 77 1 36 4 65 8 65 4 0 8 12 9 28 3 41 8 65 20 87 6 11 14 35 18 52 3
18 11 35 15 38 5 3 18 26 29 51 12 26 25 43 31 39 6 -4 10 -3 9 2 -4 25 3 43
18 43 9 0 14 3 10 6 -3 3 3 14 14 25 10 10 19 26 19 35 0 10 6 14 14 11 10 -4
13 -1 10 8 -3 8 3 16 15 20 12 3 19 10 17 14 -3 4 8 15 25 25 16 9 29 22 29
28 0 5 7 8 15 4 9 -3 15 0 15 8 0 8 11 17 25 20 14 4 23 10 20 15 -4 7 9 17
35 26 24 8 47 21 58 32 7 7 22 13 33 13 10 0 19 4 19 9 0 5 11 8 25 7 13 -2
22 1 19 5 -5 8 13 13 44 12 6 -1 12 6 12 14 0 8 6 13 13 10 6 -2 33 2 59 9 26
6 65 11 87 10 21 0 37 3 34 7 -6 10 257 7 278 -4 9 -4 40 -11 69 -14 28 -3 59
-10 69 -14 35 -18 68 -30 115 -41 28 -6 76 -27 108 -46 33 -19 61 -34 63 -34
7 0 45 -32 64 -52 8 -10 22 -18 31 -18 17 -1 90 -65 90 -80 0 -6 5 -10 12 -10
17 0 128 -117 128 -136 0 -8 4 -13 9 -10 5 3 12 -6 15 -20 4 -15 10 -24 13
-20 9 9 83 -126 76 -138 -3 -5 -1 -6 5 -2 6 3 18 -11 28 -34 10 -22 21 -40 25
-40 8 0 17 -35 28 -100 4 -30 11 -44 20 -42 9 2 12 -4 8 -18 -3 -12 1 -33 8
-48 7 -15 18 -38 23 -52 42 -104 43 -513 1 -645 -5 -16 -14 -50 -20 -74 -8
-33 -13 -41 -20 -30 -12 20 -11 2 1 -22 8 -15 8 -19 -2 -17 -7 2 -13 -6 -13
-17 -2 -53 -55 -173 -88 -196 -4 -3 -7 -10 -5 -15 4 -13 -55 -103 -64 -98 -4
3 -8 -3 -8 -13 0 -10 -13 -33 -29 -51 -17 -17 -27 -32 -23 -32 4 0 -2 -7 -13
-16 -11 -8 -20 -19 -20 -24 0 -25 -146 -155 -160 -142 -5 4 -5 2 -1 -5 4 -7
-3 -17 -16 -24 -13 -6 -31 -19 -40 -28 -34 -32 -50 -43 -101 -70 -29 -15 -68
-37 -87 -49 -19 -12 -57 -29 -85 -39 -27 -9 -60 -23 -72 -31 -19 -12 -23 -12
-23 -1 -1 11 -4 10 -13 -2 -17 -22 -58 -31 -76 -16 -12 10 -14 9 -7 -8 4 -11
4 -16 0 -12 -4 4 -12 2 -19 -3 -7 -6 -23 -6 -43 -1 -19 6 -34 6 -37 0 -4 -5 2
-9 11 -9 27 0 11 -9 -22 -13 -17 -2 -35 -7 -42 -11 -7 -4 -30 -8 -52 -8 -22 0
-43 -4 -45 -9 -3 -4 -12 -6 -19 -3 -8 3 -37 1 -64 -4 -28 -5 -56 -6 -62 -2 -6
4 -29 4 -51 0 -22 -4 -57 -4 -77 1 -20 4 -41 4 -45 0 -4 -4 -29 -4 -55 0 -26
5 -78 11 -117 15 -38 3 -77 10 -86 15 -9 4 -19 6 -22 2 -4 -3 -18 2 -31 11
-14 9 -32 16 -41 16 -8 0 -15 5 -15 11 0 5 -5 7 -10 4 -6 -4 -8 -10 -5 -15 3
-5 -7 -3 -22 5 -15 8 -38 15 -50 15 -13 0 -23 3 -23 8 0 4 -11 12 -25 19 -14
6 -23 7 -19 2 7 -12 -9 -12 -22 1 -5 5 -18 11 -29 14 -41 9 -65 19 -65 27 0 5
-7 9 -15 9 -8 0 -15 4 -15 10 0 5 -7 7 -15 4 -8 -3 -31 5 -52 17 -21 13 -40
24 -43 24 -19 2 -50 18 -50 25 0 5 -14 11 -30 15 -18 4 -27 11 -24 17 4 7 2 8
-4 4 -6 -3 -14 -1 -19 6 -4 7 -25 21 -45 30 -37 17 -67 42 -139 112 -30 29
-43 36 -51 28 -7 -7 -10 -13 -7 -15 56 -48 177 -137 185 -137 7 0 14 -4 16 -8
9 -24 228 -137 361 -188 218 -83 443 -124 678 -125 274 0 491 49 735 166 218
104 408 270 535 465 96 148 146 261 188 422 75 288 65 580 -29 858 -16 45 -80
183 -88 190 -4 3 -17 25 -30 50 -12 25 -52 84 -88 132 -271 360 -711 538
-1144 461z"/>
<path d="M790 3925 c0 -5 5 -17 10 -25 5 -8 10 -10 10 -5 0 6 -5 17 -10 25 -5
8 -10 11 -10 5z"/>
<path d="M1905 3920 c-3 -5 -1 -10 4 -10 6 0 11 5 11 10 0 6 -2 10 -4 10 -3 0
-8 -4 -11 -10z"/>
<path d="M4267 3924 c-3 -4 1 -13 9 -21 19 -20 26 -13 10 9 -7 10 -16 15 -19
12z"/>
<path d="M4460 3920 c0 -5 7 -10 16 -10 8 0 12 5 9 10 -3 6 -10 10 -16 10 -5
0 -9 -4 -9 -10z"/>
<path d="M720 3911 c0 -5 7 -12 16 -15 8 -3 12 -11 8 -17 -5 -8 -3 -9 5 -4 7
4 23 -2 37 -16 19 -18 23 -19 18 -6 -3 9 -9 17 -13 17 -3 0 -19 11 -35 25 -32
27 -36 29 -36 16z"/>
<path d="M2058 3913 c7 -3 16 -2 19 1 4 3 -2 6 -13 5 -11 0 -14 -3 -6 -6z"/>
<path d="M356 3894 c-7 -19 -8 -59 -1 -52 11 10 23 68 15 68 -4 0 -11 -7 -14
-16z"/>
<path d="M1994 3895 c23 -17 50 -20 41 -5 -4 6 -10 8 -15 5 -5 -3 -11 -1 -15
5 -3 5 -12 10 -18 10 -7 0 -3 -7 7 -15z"/>
<path d="M2128 3903 c7 -3 16 -2 19 1 4 3 -2 6 -13 5 -11 0 -14 -3 -6 -6z"/>
<path d="M3928 3903 c6 -2 18 -2 25 0 6 3 1 5 -13 5 -14 0 -19 -2 -12 -5z"/>
<path d="M4533 3883 c-21 -44 -15 -49 12 -13 29 39 29 40 13 40 -7 0 -19 -12
-25 -27z"/>
<path d="M5510 3901 c0 -6 4 -13 10 -16 6 -3 7 1 4 9 -7 18 -14 21 -14 7z"/>
<path d="M1880 3893 c0 -5 11 -13 25 -20 27 -12 33 -5 13 15 -13 13 -38 16
-38 5z"/>
<path d="M1938 3893 c7 -3 16 -2 19 1 4 3 -2 6 -13 5 -11 0 -14 -3 -6 -6z"/>
<path d="M4086 3883 c10 -7 23 -13 30 -13 6 0 14 6 17 13 3 9 -6 13 -30 13
-31 0 -33 -1 -17 -13z"/>
<path d="M2427 3873 c-4 -3 -7 -11 -7 -17 0 -6 5 -5 12 2 6 6 9 14 7 17 -3 3
-9 2 -12 -2z"/>
<path d="M3920 3860 c0 -5 5 -10 10 -10 6 0 10 5 10 10 0 6 -4 10 -10 10 -5 0
-10 -4 -10 -10z"/>
<path d="M3975 3860 c-3 -6 1 -7 9 -4 18 7 21 14 7 14 -6 0 -13 -4 -16 -10z"/>
<path d="M4430 3851 c0 -6 -10 -16 -22 -21 -16 -6 -18 -9 -7 -9 19 -1 45 26
35 36 -3 3 -6 1 -6 -6z"/>
<path d="M5620 3852 c0 -16 41 -124 46 -120 3 4 -35 118 -42 127 -2 2 -4 -1
-4 -7z"/>
<path d="M2518 3843 c-10 -2 -18 -8 -18 -13 0 -5 14 -4 30 1 45 16 36 25 -12
12z"/>
<path d="M4475 3840 c-3 -5 -1 -10 4 -10 6 0 11 5 11 10 0 6 -2 10 -4 10 -3 0
-8 -4 -11 -10z"/>
<path d="M1817 3811 c-24 -42 -21 -52 4 -13 12 18 20 35 17 37 -2 2 -12 -9
-21 -24z"/>
<path d="M810 3809 c0 -5 5 -7 10 -4 6 3 10 8 10 11 0 2 -4 4 -10 4 -5 0 -10
-5 -10 -11z"/>
<path d="M4128 3813 c7 -3 16 -2 19 1 4 3 -2 6 -13 5 -11 0 -14 -3 -6 -6z"/>
<path d="M4444 3806 c-4 -10 -13 -14 -24 -11 -21 7 -50 -3 -50 -17 0 -6 6 -6
15 2 8 6 23 9 33 6 19 -7 51 19 39 31 -4 3 -9 -2 -13 -11z"/>
<path d="M323 3771 c-6 -17 -7 -35 -2 -42 6 -10 9 -8 9 9 0 13 5 32 10 43 6
10 7 19 3 19 -5 0 -14 -13 -20 -29z"/>
<path d="M1867 3765 c-17 -12 -16 -13 7 -11 25 1 34 10 18 20 -4 2 -15 -2 -25
-9z"/>
<path d="M2463 3766 c-13 -6 -23 -14 -23 -19 0 -7 17 0 50 23 20 13 1 11 -27
-4z"/>
<path d="M4323 3753 c9 -2 23 -2 30 0 6 3 -1 5 -18 5 -16 0 -22 -2 -12 -5z"/>
<path d="M4557 3749 c7 -7 15 -10 18 -7 3 3 -2 9 -12 12 -14 6 -15 5 -6 -5z"/>
<path d="M4365 3741 c-3 -5 0 -13 6 -17 7 -4 9 -3 5 4 -3 5 0 13 6 15 9 4 10
6 1 6 -6 1 -14 -3 -18 -8z"/>
<path d="M4190 3720 c-11 -7 -6 -10 22 -10 20 0 40 5 43 10 8 13 -45 13 -65 0z"/>
<path d="M4680 3719 c0 -5 5 -7 10 -4 6 3 10 8 10 11 0 2 -4 4 -10 4 -5 0 -10
-5 -10 -11z"/>
<path d="M4513 3713 c9 -2 23 -2 30 0 6 3 -1 5 -18 5 -16 0 -22 -2 -12 -5z"/>
<path d="M4390 3706 c0 -2 7 -7 16 -10 8 -3 12 -2 9 4 -6 10 -25 14 -25 6z"/>
<path d="M298 3670 c-5 -35 7 -41 16 -7 8 30 7 37 -3 37 -5 0 -11 -13 -13 -30z"/>
<path d="M4629 3683 c-12 -15 -12 -16 4 -10 10 4 23 7 28 7 5 0 9 5 9 10 0 16
-26 12 -41 -7z"/>
<path d="M1777 3679 c7 -7 15 -10 18 -7 3 3 -2 9 -12 12 -14 6 -15 5 -6 -5z"/>
<path d="M584 3665 c10 -8 23 -12 28 -9 14 9 -2 24 -25 24 -21 -1 -21 -1 -3
-15z"/>
<path d="M2296 3664 c-11 -8 -16 -14 -10 -14 13 0 39 18 34 24 -3 2 -14 -2
-24 -10z"/>
<path d="M1737 3634 c-6 -10 9 -42 16 -34 3 3 1 14 -3 24 -3 11 -9 15 -13 10z"/>
<path d="M4375 3630 c-3 -4 16 -15 42 -24 54 -19 63 -19 63 -6 0 6 -10 10 -22
10 -13 0 -35 7 -50 14 -15 8 -30 11 -33 6z"/>
<path d="M282 3578 c-1 -28 -7 -68 -12 -87 -5 -20 -9 -74 -9 -121 l2 -85 7 85
c5 47 13 112 19 144 13 69 14 116 4 116 -5 0 -9 -23 -11 -52z"/>
<path d="M2300 3585 c-8 -9 -8 -15 -2 -15 12 0 26 19 19 26 -2 2 -10 -2 -17
-11z"/>
<path d="M1733 3570 c-2 -19 84 -64 127 -66 14 -1 32 -4 40 -7 88 -32 173 -36
221 -11 17 8 28 18 25 22 -4 3 -12 0 -18 -6 -13 -13 -158 -17 -158 -4 0 4 -15
9 -32 10 -31 3 -67 8 -78 12 -3 1 -14 2 -25 1 -11 -1 -39 14 -61 33 -32 28
-40 31 -41 16z"/>
<path d="M4485 3580 c-3 -5 2 -10 12 -10 11 0 24 -5 31 -12 7 -7 12 -8 12 -4
0 9 -31 35 -42 36 -4 0 -10 -4 -13 -10z"/>
<path d="M580 3565 c7 -8 17 -15 22 -15 6 0 5 7 -2 15 -7 8 -17 15 -22 15 -6
0 -5 -7 2 -15z"/>
<path d="M2887 3573 c-3 -5 -1 -17 4 -28 6 -17 7 -16 6 8 -1 28 -3 32 -10 20z"/>
<path d="M4705 3569 l-40 -6 43 -2 c24 0 52 -6 64 -12 11 -6 22 -8 25 -6 13
13 -55 32 -92 26z"/>
<path d="M1830 3561 c0 -5 5 -13 10 -16 6 -3 10 -2 10 4 0 5 -4 13 -10 16 -5
3 -10 2 -10 -4z"/>
<path d="M2260 3560 c-9 -6 -10 -10 -3 -10 6 0 15 5 18 10 8 12 4 12 -15 0z"/>
<path d="M652 3548 c4 -13 56 -43 63 -36 2 2 -12 14 -32 26 -21 14 -33 18 -31
10z"/>
<path d="M825 3550 c-3 -5 -1 -10 4 -10 6 0 11 5 11 10 0 6 -2 10 -4 10 -3 0
-8 -4 -11 -10z"/>
<path d="M2796 3541 c-4 -7 -5 -15 -2 -18 9 -9 19 4 14 18 -4 11 -6 11 -12 0z"/>
<path d="M4397 3539 c7 -7 15 -10 18 -7 3 3 -2 9 -12 12 -14 6 -15 5 -6 -5z"/>
<path d="M4570 3538 c0 -4 16 -8 35 -8 19 0 35 2 35 4 0 2 -16 6 -35 8 -19 2
-35 0 -35 -4z"/>
<path d="M2170 3520 c-9 -6 -10 -10 -3 -10 6 0 15 5 18 10 8 12 4 12 -15 0z"/>
<path d="M2200 3509 c0 -5 5 -7 10 -4 6 3 10 8 10 11 0 2 -4 4 -10 4 -5 0 -10
-5 -10 -11z"/>
<path d="M640 3506 c0 -11 30 -39 36 -34 2 3 -5 13 -16 23 -11 10 -20 15 -20
11z"/>
<path d="M1751 3496 c-21 -12 -22 -14 -5 -20 16 -6 33 7 34 27 0 9 0 9 -29 -7z"/>
<path d="M2266 3493 c-6 -14 -5 -15 5 -6 7 7 10 15 7 18 -3 3 -9 -2 -12 -12z"/>
<path d="M785 3490 c-3 -5 -1 -10 4 -10 6 0 11 5 11 10 0 6 -2 10 -4 10 -3 0
-8 -4 -11 -10z"/>
<path d="M5707 3477 c3 -15 9 -27 14 -27 13 0 11 13 -5 35 -13 18 -14 18 -9
-8z"/>
<path d="M1813 3451 c12 -23 25 -41 28 -41 14 0 -20 75 -35 78 -12 3 -11 -4 7
-37z"/>
<path d="M4944 3468 c3 -13 6 -26 6 -30 0 -5 4 -8 10 -8 6 0 6 9 0 24 -5 13
-6 27 -3 30 4 3 1 6 -6 6 -9 0 -11 -8 -7 -22z"/>
<path d="M5750 3481 c0 -6 4 -13 10 -16 6 -3 7 1 4 9 -7 18 -14 21 -14 7z"/>
<path d="M2243 3465 c0 -8 4 -12 9 -9 5 3 6 10 3 15 -9 13 -12 11 -12 -6z"/>
<path d="M2868 3473 c7 -3 16 -2 19 1 4 3 -2 6 -13 5 -11 0 -14 -3 -6 -6z"/>
<path d="M1011 3454 c0 -11 3 -14 6 -6 3 7 2 16 -1 19 -3 4 -6 -2 -5 -13z"/>
<path d="M3178 3465 c-1 -1 -50 -6 -108 -9 -138 -9 -140 -9 -174 -31 -16 -11
-34 -20 -40 -21 -19 -3 -105 -64 -116 -82 -5 -9 -10 -12 -10 -7 0 12 -25 -28
-41 -67 -6 -16 -15 -28 -20 -28 -5 0 -9 -7 -9 -15 0 -8 -5 -15 -10 -15 -6 0
-9 -3 -8 -7 1 -5 -4 -19 -11 -33 -22 -38 -17 -164 9 -232 12 -32 25 -58 30
-58 5 0 7 -8 4 -17 -5 -15 -4 -16 6 -3 9 12 10 11 8 -9 -2 -14 3 -26 11 -29 9
-3 11 0 6 9 -5 8 3 4 17 -9 14 -13 28 -19 32 -14 3 5 -8 18 -23 30 -16 12 -43
47 -61 79 -28 51 -32 67 -32 133 0 82 10 116 60 202 57 99 157 165 292 194 74
16 189 18 240 4 19 -5 55 -14 80 -20 25 -7 59 -18 77 -26 17 -8 34 -14 37 -14
4 0 33 -16 64 -36 196 -123 323 -353 339 -609 14 -247 -68 -467 -240 -639 -89
-88 -122 -116 -137 -116 -6 0 -10 -4 -10 -8 0 -5 -39 -28 -87 -51 -49 -24 -95
-47 -104 -52 -9 -4 -69 -20 -133 -36 -122 -30 -155 -47 -58 -30 31 5 65 10 75
10 9 1 17 5 17 9 0 4 10 8 23 8 12 0 40 9 62 20 22 11 50 20 62 20 13 0 23 5
23 11 0 6 7 8 16 5 8 -3 13 -2 10 3 -3 5 2 12 12 16 9 3 18 5 19 3 1 -2 12 6
25 17 13 11 39 28 59 38 20 10 47 29 61 42 14 13 29 21 32 18 3 -4 6 1 6 10 0
10 4 17 8 17 14 0 52 36 52 49 0 6 7 11 16 11 8 0 13 4 10 9 -4 5 -3 11 2 13
16 7 102 138 120 182 10 26 22 43 26 39 5 -4 6 4 2 20 -4 16 -2 27 4 27 5 0
10 9 10 19 0 11 5 23 10 26 6 4 8 10 5 15 -3 5 1 34 9 64 17 63 20 193 7 276
-5 30 -12 78 -16 105 -5 28 -11 52 -14 55 -13 10 -31 62 -26 71 4 5 2 9 -4 9
-10 0 -27 39 -23 53 1 5 -2 6 -8 2 -5 -3 -10 -1 -10 6 0 23 -80 135 -123 174
-23 21 -60 49 -82 63 -22 14 -42 28 -45 32 -3 3 -27 14 -53 24 -34 13 -47 23
-43 32 4 12 2 12 -14 4 -15 -8 -27 -7 -49 5 -17 8 -37 15 -46 15 -8 0 -15 4
-15 10 0 5 -7 7 -15 4 -8 -3 -28 -1 -44 4 -16 6 -31 9 -33 7z"/>
<path d="M4808 3463 c7 -3 16 -2 19 1 4 3 -2 6 -13 5 -11 0 -14 -3 -6 -6z"/>
<path d="M713 3447 c11 -7 34 -27 52 -44 18 -18 41 -33 52 -33 17 1 17 1 -2
12 -11 6 -36 27 -55 45 -19 18 -42 33 -50 32 -12 0 -11 -3 3 -12z"/>
<path d="M1910 3456 c0 -2 11 -6 25 -8 14 -3 25 -1 25 3 0 5 -11 9 -25 9 -14
0 -25 -2 -25 -4z"/>
<path d="M1747 3439 c7 -7 15 -10 18 -7 3 3 -2 9 -12 12 -14 6 -15 5 -6 -5z"/>
<path d="M2057 3436 c-3 -8 4 -11 24 -8 39 6 45 19 9 20 -15 0 -31 -5 -33 -12z"/>
<path d="M810 3416 c0 -2 7 -7 16 -10 8 -3 12 -2 9 4 -6 10 -25 14 -25 6z"/>
<path d="M1991 3404 c0 -11 3 -14 6 -6 3 7 2 16 -1 19 -3 4 -6 -2 -5 -13z"/>
<path d="M4971 3403 c-1 -12 4 -25 9 -28 12 -7 12 2 0 30 -8 19 -9 19 -9 -2z"/>
<path d="M1880 3395 c0 -9 5 -15 11 -13 6 2 11 8 11 13 0 5 -5 11 -11 13 -6 2
-11 -4 -11 -13z"/>
<path d="M2996 3400 c-51 -9 -156 -57 -191 -88 -25 -21 -90 -119 -99 -149 -12
-38 1 -26 23 23 12 25 26 51 32 57 5 7 19 24 32 39 12 14 56 43 97 64 72 37
80 39 192 42 90 3 124 1 147 -11 18 -9 33 -11 37 -6 17 28 -166 47 -270 29z"/>
<path d="M4755 3400 c-19 -8 -19 -9 3 -9 12 -1 22 4 22 9 0 6 -1 10 -2 9 -2 0
-12 -4 -23 -9z"/>
<path d="M2581 3384 c0 -11 3 -14 6 -6 3 7 2 16 -1 19 -3 4 -6 -2 -5 -13z"/>
<path d="M1001 3374 c0 -11 3 -14 6 -6 3 7 2 16 -1 19 -3 4 -6 -2 -5 -13z"/>
<path d="M3300 3371 c0 -4 18 -13 41 -20 23 -7 48 -15 58 -18 11 -4 13 -3 6 4
-14 14 -105 44 -105 34z"/>
<path d="M4992 3335 c6 -14 13 -23 16 -21 7 7 -9 46 -18 46 -5 0 -4 -11 2 -25z"/>
<path d="M4508 3343 c7 -3 16 -2 19 1 4 3 -2 6 -13 5 -11 0 -14 -3 -6 -6z"/>
<path d="M1815 3330 c3 -5 8 -10 11 -10 2 0 4 5 4 10 0 6 -5 10 -11 10 -5 0
-7 -4 -4 -10z"/>
<path d="M3420 3327 c0 -2 21 -18 48 -35 64 -42 152 -121 152 -137 0 -7 3 -15
8 -17 13 -6 72 -104 72 -121 0 -9 4 -18 9 -22 5 -3 22 -42 38 -88 26 -76 28
-93 28 -237 0 -124 -4 -167 -19 -215 -22 -69 -84 -200 -118 -246 -24 -33 -77
-89 -84 -89 -2 0 -16 -13 -31 -28 -23 -23 -58 -50 -142 -108 -1 -2 0 -7 4 -13
8 -13 28 -3 72 36 18 15 47 39 65 53 96 74 192 212 232 332 31 94 37 128 42
248 5 96 2 141 -10 194 -37 158 -117 308 -210 392 -61 56 -108 90 -118 86 -5
-1 -8 3 -8 8 0 6 -7 10 -15 10 -8 0 -15 -1 -15 -3z"/>
<path d="M1855 3310 c3 -5 8 -10 11 -10 2 0 4 5 4 10 0 6 -5 10 -11 10 -5 0
-7 -4 -4 -10z"/>
<path d="M2100 3301 c0 -6 4 -12 8 -15 5 -3 9 1 9 9 0 8 -4 15 -9 15 -4 0 -8
-4 -8 -9z"/>
<path d="M2655 3300 c-3 -5 -1 -10 4 -10 6 0 11 5 11 10 0 6 -2 10 -4 10 -3 0
-8 -4 -11 -10z"/>
<path d="M4880 3290 c0 -9 39 -25 45 -18 2 2 -7 8 -21 15 -13 6 -24 7 -24 3z"/>
<path d="M5010 3286 c0 -8 4 -17 9 -20 5 -4 7 3 4 14 -6 23 -13 26 -13 6z"/>
<path d="M845 3270 c-3 -5 1 -10 9 -10 8 0 18 5 21 10 3 6 -1 10 -9 10 -8 0
-18 -4 -21 -10z"/>
<path d="M987 3255 c-3 -16 0 -24 7 -22 14 4 21 47 8 47 -5 0 -12 -11 -15 -25z"/>
<path d="M4625 3270 c3 -5 8 -10 11 -10 2 0 4 5 4 10 0 6 -5 10 -11 10 -5 0
-7 -4 -4 -10z"/>
<path d="M4655 3270 c3 -5 12 -7 20 -3 21 7 19 13 -6 13 -11 0 -18 -4 -14 -10z"/>
<path d="M242 3183 c0 -51 4 -93 8 -93 11 0 17 108 7 126 -5 9 -3 14 5 14 9 0
9 3 2 8 -6 4 -13 14 -16 22 -3 8 -6 -27 -6 -77z"/>
<path d="M4538 3263 c7 -3 16 -2 19 1 4 3 -2 6 -13 5 -11 0 -14 -3 -6 -6z"/>
<path d="M4590 3259 c0 -5 5 -7 10 -4 6 3 10 8 10 11 0 2 -4 4 -10 4 -5 0 -10
-5 -10 -11z"/>
<path d="M1830 3254 c0 -7 27 -34 34 -34 13 0 5 16 -14 28 -11 7 -20 10 -20 6z"/>
<path d="M2955 3230 c3 -5 8 -10 11 -10 2 0 4 5 4 10 0 6 -5 10 -11 10 -5 0
-7 -4 -4 -10z"/>
<path d="M5031 3224 c0 -11 3 -14 6 -6 3 7 2 16 -1 19 -3 4 -6 -2 -5 -13z"/>
<path d="M306 3038 c4 -140 25 -312 39 -326 8 -8 6 28 -4 73 -11 46 -19 131
-31 295 -8 108 -8 105 -4 -42z"/>
<path d="M4700 3179 c0 -5 5 -7 10 -4 6 3 10 8 10 11 0 2 -4 4 -10 4 -5 0 -10
-5 -10 -11z"/>
<path d="M5046 3165 c8 -37 14 -45 14 -19 0 10 -5 26 -10 34 -8 11 -9 7 -4
-15z"/>
<path d="M991 3135 c1 -48 1 -49 9 -15 5 19 4 41 0 50 -6 10 -9 -1 -9 -35z"/>
<path d="M2687 3113 c-3 -5 -1 -17 4 -28 7 -17 8 -17 8 8 1 27 -4 34 -12 20z"/>
<path d="M4748 3103 c7 -3 16 -2 19 1 4 3 -2 6 -13 5 -11 0 -14 -3 -6 -6z"/>
<path d="M1745 3090 c3 -5 8 -10 11 -10 2 0 4 5 4 10 0 6 -5 10 -11 10 -5 0
-7 -4 -4 -10z"/>
<path d="M3436 3064 c4 -15 2 -24 -5 -24 -6 0 -11 -5 -11 -11 0 -8 5 -8 15 1
8 7 15 18 15 25 0 8 6 15 12 17 7 3 2 7 -10 10 -19 5 -21 3 -16 -18z"/>
<path d="M4790 3070 c-8 -5 -11 -12 -7 -16 4 -4 13 -2 19 4 15 15 7 24 -12 12z"/>
<path d="M995 2978 c3 -40 10 -75 13 -78 4 -3 8 -32 10 -65 2 -33 12 -94 23
-135 11 -41 25 -93 31 -115 6 -22 16 -44 22 -50 6 -5 12 -25 14 -43 1 -17 23
-78 48 -135 49 -110 51 -113 59 -105 3 3 -15 48 -40 101 -25 52 -45 106 -45
120 0 13 -3 27 -7 31 -5 4 -8 11 -9 14 0 4 -4 16 -9 27 -30 75 -34 88 -30 95
3 5 0 10 -7 12 -6 2 -12 23 -12 45 -1 23 -4 39 -7 37 -8 -5 -19 59 -19 114 0
24 -5 53 -12 65 -6 12 -11 47 -12 79 0 32 -4 58 -9 58 -6 0 -7 -29 -2 -72z"/>
<path d="M3085 3029 l-20 -23 25 17 c28 19 76 22 117 6 22 -8 25 -8 16 2 -7 7
-36 14 -65 17 -46 3 -56 1 -73 -19z"/>
<path d="M2991 3014 c0 -11 3 -14 6 -6 3 7 2 16 -1 19 -3 4 -6 -2 -5 -13z"/>
<path d="M3284 2970 c20 -22 36 -45 36 -52 0 -6 3 -8 6 -5 11 10 -51 97 -69
97 -5 0 7 -18 27 -40z"/>
<path d="M2811 2973 c7 -12 15 -20 18 -17 3 2 -3 12 -13 22 -17 16 -18 16 -5
-5z"/>
<path d="M2156 2962 c-2 -4 -1 -14 5 -22 7 -12 9 -10 9 8 0 23 -5 28 -14 14z"/>
<path d="M667 2930 c3 -11 7 -20 9 -20 2 0 4 9 4 20 0 11 -4 20 -9 20 -5 0 -7
-9 -4 -20z"/>
<path d="M3058 2917 c-3 -19 -2 -25 4 -19 6 6 8 18 6 28 -3 14 -5 12 -10 -9z"/>
<path d="M3485 2929 c-4 -6 -4 -13 -1 -16 3 -4 6 -1 6 5 0 6 8 13 18 15 15 4
15 5 0 6 -9 0 -20 -4 -23 -10z"/>
<path d="M1888 2923 c7 -3 16 -2 19 1 4 3 -2 6 -13 5 -11 0 -14 -3 -6 -6z"/>
<path d="M1951 2914 c0 -11 3 -14 6 -6 3 7 2 16 -1 19 -3 4 -6 -2 -5 -13z"/>
<path d="M760 2916 c0 -2 7 -7 16 -10 8 -3 12 -2 9 4 -6 10 -25 14 -25 6z"/>
<path d="M4900 2910 c-13 -8 -12 -10 3 -10 9 0 17 5 17 10 0 12 -1 12 -20 0z"/>
<path d="M268 2860 c2 -22 6 -40 8 -40 2 0 4 18 4 40 0 22 -3 40 -8 40 -4 0
-6 -18 -4 -40z"/>
<path d="M1829 2875 c17 -54 21 -61 16 -25 -3 19 -10 39 -15 44 -7 7 -7 1 -1
-19z"/>
<path d="M3335 2883 c5 -10 10 -33 13 -51 2 -18 9 -35 14 -38 7 -4 8 6 3 27
-10 45 -23 79 -31 79 -3 0 -3 -8 1 -17z"/>
<path d="M3450 2890 c-13 -8 -12 -10 3 -10 9 0 17 5 17 10 0 12 -1 12 -20 0z"/>
<path d="M3628 2893 c7 -3 16 -2 19 1 4 3 -2 6 -13 5 -11 0 -14 -3 -6 -6z"/>
<path d="M1912 2864 c-11 -12 -6 -14 30 -13 28 1 34 3 18 6 -14 3 -27 9 -30
13 -3 4 -11 2 -18 -6z"/>
<path d="M2052 2860 c7 -11 16 -16 21 -11 12 12 0 31 -19 31 -12 0 -12 -3 -2
-20z"/>
<path d="M2544 2865 c-10 -8 -14 -14 -9 -15 15 0 40 18 34 24 -3 3 -14 -1 -25
-9z"/>
<path d="M2980 2855 c-7 -8 -25 -15 -41 -15 -16 0 -29 -4 -29 -10 0 -5 6 -8
13 -6 6 3 24 7 38 10 15 3 29 13 33 21 7 19 2 19 -14 0z"/>
<path d="M3200 2860 c0 -5 5 -10 11 -10 5 0 7 5 4 10 -3 6 -8 10 -11 10 -2 0
-4 -4 -4 -10z"/>
<path d="M3639 2813 c-13 -16 -12 -17 4 -4 9 7 17 15 17 17 0 8 -8 3 -21 -13z"/>
<path d="M3210 2810 c0 -5 5 -10 11 -10 5 0 7 5 4 10 -3 6 -8 10 -11 10 -2 0
-4 -4 -4 -10z"/>
<path d="M280 2789 c0 -13 5 -31 10 -39 7 -11 8 -5 4 20 -8 43 -14 51 -14 19z"/>
<path d="M1951 2806 c2 -2 18 -6 34 -10 22 -5 26 -4 15 4 -14 9 -59 15 -49 6z"/>
<path d="M2120 2800 c0 -5 5 -10 11 -10 5 0 7 5 4 10 -3 6 -8 10 -11 10 -2 0
-4 -4 -4 -10z"/>
<path d="M3700 2773 c-19 -18 -30 -33 -24 -33 12 0 70 58 63 63 -2 2 -20 -11
-39 -30z"/>
<path d="M4890 2790 c0 -5 5 -10 10 -10 6 0 10 5 10 10 0 6 -4 10 -10 10 -5 0
-10 -4 -10 -10z"/>
<path d="M2776 2783 c-3 -3 -3 -10 0 -14 7 -12 44 -12 44 0 0 10 -36 21 -44
14z"/>
<path d="M3657 2783 c-4 -3 -7 -11 -7 -17 0 -6 5 -5 12 2 6 6 9 14 7 17 -3 3
-9 2 -12 -2z"/>
<path d="M2150 2773 c0 -12 38 -48 45 -41 3 2 -6 15 -20 28 -14 13 -25 19 -25
13z"/>
<path d="M3350 2752 c0 -75 -56 -186 -129 -257 -39 -38 -169 -112 -231 -132
-33 -10 -33 -11 -8 -12 32 -1 108 26 123 44 6 6 23 15 40 19 18 5 56 35 95 76
49 52 71 84 91 137 32 81 46 153 30 153 -6 0 -11 -13 -11 -28z"/>
<path d="M760 2760 c0 -5 5 -10 11 -10 5 0 7 5 4 10 -3 6 -8 10 -11 10 -2 0
-4 -4 -4 -10z"/>
<path d="M2121 2748 c6 -15 18 -29 25 -32 21 -8 17 2 -12 32 l-25 27 12 -27z"/>
<path d="M2830 2766 c0 -2 9 -6 20 -9 11 -3 20 -1 20 4 0 5 -9 9 -20 9 -11 0
-20 -2 -20 -4z"/>
<path d="M3620 2745 c-11 -13 -10 -14 4 -9 9 3 16 10 16 15 0 13 -6 11 -20 -6z"/>
<path d="M918 2743 c6 -2 18 -2 25 0 6 3 1 5 -13 5 -14 0 -19 -2 -12 -5z"/>
<path d="M1845 2730 c-3 -5 -1 -10 4 -10 6 0 11 5 11 10 0 6 -2 10 -4 10 -3 0
-8 -4 -11 -10z"/>
<path d="M1880 2736 c0 -2 7 -7 16 -10 8 -3 12 -2 9 4 -6 10 -25 14 -25 6z"/>
<path d="M2212 2728 c2 -6 10 -14 16 -16 7 -2 10 2 6 12 -7 18 -28 22 -22 4z"/>
<path d="M3707 2733 c-10 -9 -9 -23 2 -23 5 0 11 7 15 15 5 15 -5 20 -17 8z"/>
<path d="M648 2723 c7 -3 16 -2 19 1 4 3 -2 6 -13 5 -11 0 -14 -3 -6 -6z"/>
<path d="M3555 2709 c-11 -4 -32 -8 -47 -8 -33 -1 -135 -50 -142 -68 -8 -20 8
-16 29 7 10 11 22 20 26 20 4 0 20 5 36 12 15 7 53 17 83 23 30 5 51 13 45 16
-5 4 -19 3 -30 -2z"/>
<path d="M1940 2700 c0 -5 5 -10 11 -10 5 0 7 5 4 10 -3 6 -8 10 -11 10 -2 0
-4 -4 -4 -10z"/>
<path d="M341 2690 c0 -8 4 -24 9 -35 l9 -20 0 20 c0 11 -4 27 -9 35 -9 13
-10 13 -9 0z"/>
<path d="M2170 2670 c0 -5 5 -10 11 -10 5 0 7 5 4 10 -3 6 -8 10 -11 10 -2 0
-4 -4 -4 -10z"/>
<path d="M3615 2670 c-8 -13 5 -13 25 0 13 8 13 10 -2 10 -9 0 -20 -4 -23 -10z"/>
<path d="M3475 2650 c-3 -6 1 -7 9 -4 18 7 21 14 7 14 -6 0 -13 -4 -16 -10z"/>
<path d="M3520 2644 c-22 -12 -23 -14 -5 -14 11 1 29 7 39 15 26 19 1 18 -34
-1z"/>
<path d="M3445 2640 c-3 -5 -1 -10 4 -10 6 0 11 5 11 10 0 6 -2 10 -4 10 -3 0
-8 -4 -11 -10z"/>
<path d="M360 2614 c0 -10 5 -35 10 -54 5 -19 16 -66 25 -103 9 -38 19 -66 21
-64 3 3 -4 42 -15 88 -11 46 -22 96 -24 111 -4 32 -17 50 -17 22z"/>
<path d="M3670 2619 c-23 -8 -22 -8 7 -6 18 2 34 -1 36 -7 2 -5 6 -2 10 7 7
19 -11 21 -53 6z"/>
<path d="M1938 2613 c7 -3 16 -2 19 1 4 3 -2 6 -13 5 -11 0 -14 -3 -6 -6z"/>
<path d="M3363 2585 c0 -8 4 -15 9 -15 4 0 8 4 8 9 0 6 -4 12 -8 15 -5 3 -9
-1 -9 -9z"/>
<path d="M3690 2590 c0 -5 5 -10 11 -10 5 0 7 5 4 10 -3 6 -8 10 -11 10 -2 0
-4 -4 -4 -10z"/>
<path d="M321 2564 c0 -11 3 -14 6 -6 3 7 2 16 -1 19 -3 4 -6 -2 -5 -13z"/>
<path d="M3555 2570 c-3 -5 -2 -10 4 -10 5 0 13 5 16 10 3 6 2 10 -4 10 -5 0
-13 -4 -16 -10z"/>
<path d="M1957 2564 c-14 -14 59 -51 113 -57 54 -5 55 -5 20 8 -19 7 -45 14
-56 14 -12 1 -27 8 -34 16 -7 8 -16 13 -20 10 -5 -3 -10 0 -12 6 -2 5 -7 7
-11 3z"/>
<path d="M3515 2550 c-16 -7 -17 -9 -3 -9 9 -1 20 4 23 9 7 11 7 11 -20 0z"/>
<path d="M4491 2524 c0 -11 3 -14 6 -6 3 7 2 16 -1 19 -3 4 -6 -2 -5 -13z"/>
<path d="M336 2517 c3 -10 9 -15 12 -12 3 3 0 11 -7 18 -10 9 -11 8 -5 -6z"/>
<path d="M2402 2504 c27 -30 41 -31 27 -1 -6 13 -19 23 -29 24 -17 2 -17 0 2
-23z"/>
<path d="M3455 2520 c-18 -8 -17 -9 7 -9 15 -1 30 4 33 9 7 12 -12 12 -40 0z"/>
<path d="M2130 2490 c0 -5 10 -10 23 -10 18 0 19 2 7 10 -19 13 -30 13 -30 0z"/>
<path d="M3277 2483 c-4 -3 -7 -13 -7 -22 0 -13 2 -13 13 1 6 9 19 18 27 21
10 4 8 6 -6 6 -11 1 -24 -2 -27 -6z"/>
<path d="M3562 2477 c-8 -10 -6 -13 9 -13 10 0 19 6 19 13 0 7 -4 13 -9 13 -5
0 -13 -6 -19 -13z"/>
<path d="M2450 2470 c0 -6 8 -14 18 -17 9 -4 28 -17 42 -30 14 -13 41 -28 60
-34 19 -7 40 -15 45 -19 16 -12 113 -32 127 -27 8 3 5 6 -7 7 -36 2 -160 47
-158 57 1 5 -8 10 -20 10 -12 1 -29 11 -38 22 -9 11 -19 17 -23 14 -3 -3 -8 2
-12 11 -7 17 -34 22 -34 6z"/>
<path d="M2397 2459 c7 -7 15 -10 18 -7 3 3 -2 9 -12 12 -14 6 -15 5 -6 -5z"/>
<path d="M3485 2460 c-3 -5 -1 -10 4 -10 6 0 11 5 11 10 0 6 -2 10 -4 10 -3 0
-8 -4 -11 -10z"/>
<path d="M3424 2450 c-12 -5 -25 -14 -30 -21 -5 -9 -2 -10 12 -4 10 4 29 8 42
8 13 -1 21 4 19 10 -5 15 -18 17 -43 7z"/>
<path d="M3650 2449 c0 -5 5 -7 10 -4 6 3 10 8 10 11 0 2 -4 4 -10 4 -5 0 -10
-5 -10 -11z"/>
<path d="M1010 2446 c0 -2 7 -7 16 -10 8 -3 12 -2 9 4 -6 10 -25 14 -25 6z"/>
<path d="M4486 2415 c-3 -8 -1 -15 4 -15 6 0 10 7 10 15 0 8 -2 15 -4 15 -2 0
-6 -7 -10 -15z"/>
<path d="M363 2385 c0 -22 2 -30 4 -17 2 12 2 30 0 40 -3 9 -5 -1 -4 -23z"/>
<path d="M1007 2409 c7 -7 15 -10 18 -7 3 3 -2 9 -12 12 -14 6 -15 5 -6 -5z"/>
<path d="M3286 2400 c44 -23 44 -23 44 -10 0 6 -7 10 -16 10 -8 0 -13 3 -11 8
3 4 -9 8 -26 9 l-30 2 39 -19z"/>
<path d="M3504 2403 c10 -10 96 -12 96 -2 0 5 -23 9 -52 9 -28 0 -48 -3 -44
-7z"/>
<path d="M3615 2401 c-2 -4 10 -8 26 -9 16 -1 29 -1 29 2 0 7 -50 13 -55 7z"/>
<path d="M2168 2383 c7 -3 16 -2 19 1 4 3 -2 6 -13 5 -11 0 -14 -3 -6 -6z"/>
<path d="M3150 2380 c-8 -5 -12 -12 -9 -15 4 -3 12 1 19 10 14 17 11 19 -10 5z"/>
<path d="M3345 2383 c16 -16 59 -23 75 -13 13 8 13 10 -1 10 -9 0 -32 3 -50 6
-23 5 -31 3 -24 -3z"/>
<path d="M2360 2371 c0 -5 7 -12 16 -15 14 -5 15 -4 4 9 -14 17 -20 19 -20 6z"/>
<path d="M3068 2350 c-9 -6 -43 -17 -75 -25 -53 -13 -54 -14 -18 -13 22 1 54
8 70 17 17 8 44 18 60 22 27 6 28 7 5 8 -14 0 -33 -4 -42 -9z"/>
<path d="M2774 2339 c-6 -10 150 -10 166 0 9 7 -15 9 -74 8 -48 -1 -90 -5 -92
-8z"/>
<path d="M2270 2325 c0 -5 5 -17 10 -25 5 -8 10 -10 10 -5 0 6 -5 17 -10 25
-5 8 -10 11 -10 5z"/>
<path d="M2688 2313 c6 -2 18 -2 25 0 6 3 1 5 -13 5 -14 0 -19 -2 -12 -5z"/>
<path d="M448 2280 c2 -16 9 -30 14 -30 5 0 6 10 3 23 -11 35 -22 40 -17 7z"/>
<path d="M2750 2300 c0 -5 4 -10 9 -10 6 0 13 5 16 10 3 6 -1 10 -9 10 -9 0
-16 -4 -16 -10z"/>
<path d="M2810 2301 c0 -4 11 -6 25 -3 14 2 25 6 25 8 0 2 -11 4 -25 4 -14 0
-25 -4 -25 -9z"/>
<path d="M1090 2275 c7 -9 15 -13 17 -11 7 7 -7 26 -19 26 -6 0 -6 -6 2 -15z"/>
<path d="M3200 2270 c-12 -7 -12 -10 3 -16 21 -8 29 -3 19 13 -5 8 -13 9 -22
3z"/>
<path d="M3248 2273 c6 -2 18 -2 25 0 6 3 1 5 -13 5 -14 0 -19 -2 -12 -5z"/>
<path d="M2440 2250 c0 -5 5 -10 11 -10 5 0 7 5 4 10 -3 6 -8 10 -11 10 -2 0
-4 -4 -4 -10z"/>
<path d="M1225 2238 c-12 -30 141 -275 241 -389 54 -60 192 -199 198 -199 2 0
6 6 9 14 3 8 -1 13 -11 12 -10 0 -16 6 -16 16 1 10 -1 16 -5 15 -3 -1 -21 11
-38 27 -26 23 -30 32 -21 43 10 12 7 13 -15 8 -21 -6 -27 -4 -27 9 0 9 -5 16
-11 16 -5 0 -7 5 -3 12 4 7 3 8 -4 4 -7 -4 -12 -2 -12 4 0 6 -4 8 -10 5 -5 -3
-10 0 -10 8 0 7 -9 23 -19 34 -11 12 -17 24 -14 27 4 3 -1 6 -10 6 -9 0 -19
11 -23 25 -3 14 -10 22 -15 20 -5 -3 -11 6 -15 20 -3 14 -9 24 -11 21 -9 -9
-35 23 -28 34 3 5 1 10 -4 10 -6 0 -11 8 -11 18 0 15 -2 15 -11 2 -9 -12 -10
-11 -6 8 3 12 2 22 -2 22 -4 0 -14 12 -21 28 -8 15 -20 35 -28 44 -8 9 -20 34
-27 55 -10 28 -15 34 -20 21z"/>
<path d="M2279 2227 c14 -18 51 -42 51 -33 0 3 -15 15 -32 27 -24 17 -29 18
-19 6z"/>
<path d="M470 2218 c0 -7 5 -20 10 -28 8 -12 10 -11 10 7 0 12 -4 25 -10 28
-5 3 -10 0 -10 -7z"/>
<path d="M3365 2220 c3 -5 11 -10 16 -10 6 0 7 5 4 10 -3 6 -11 10 -16 10 -6
0 -7 -4 -4 -10z"/>
<path d="M2348 2183 c7 -3 16 -2 19 1 4 3 -2 6 -13 5 -11 0 -14 -3 -6 -6z"/>
<path d="M4426 2145 c-9 -26 -7 -32 5 -12 6 10 9 21 6 23 -2 3 -7 -2 -11 -11z"/>
<path d="M3415 2140 c-8 -13 5 -13 25 0 13 8 13 10 -2 10 -9 0 -20 -4 -23 -10z"/>
<path d="M3380 2110 c-9 -6 -10 -10 -3 -10 6 0 15 5 18 10 8 12 4 12 -15 0z"/>
<path d="M3070 2085 c-9 -11 -10 -15 -1 -15 7 0 19 7 27 15 13 13 13 15 1 15
-8 0 -20 -7 -27 -15z"/>
<path d="M1177 2075 c2 -8 13 -13 23 -12 23 1 17 13 -9 20 -13 3 -18 1 -14 -8z"/>
<path d="M2830 2070 c14 -11 34 -20 45 -20 17 0 15 4 -10 20 -40 26 -69 26
-35 0z"/>
<path d="M540 2048 c0 -9 5 -20 10 -23 13 -8 13 5 0 25 -8 13 -10 13 -10 -2z"/>
<path d="M2995 2050 c3 -5 11 -10 16 -10 6 0 7 5 4 10 -3 6 -11 10 -16 10 -6
0 -7 -4 -4 -10z"/>
<path d="M3380 2050 c-9 -6 -10 -10 -3 -10 6 0 15 5 18 10 8 12 4 12 -15 0z"/>
<path d="M4383 2035 c-6 -14 -7 -25 -2 -25 11 0 22 25 17 39 -1 6 -8 -1 -15
-14z"/>
<path d="M4986 2045 c-3 -9 -6 -22 -5 -28 0 -7 5 -1 10 12 5 13 8 26 5 28 -2
2 -6 -3 -10 -12z"/>
<path d="M2928 2043 c7 -3 16 -2 19 1 4 3 -2 6 -13 5 -11 0 -14 -3 -6 -6z"/>
<path d="M2810 2030 c0 -5 7 -10 15 -10 8 0 15 5 15 10 0 6 -7 10 -15 10 -8 0
-15 -4 -15 -10z"/>
<path d="M1247 1997 c3 -13 13 -28 23 -35 18 -11 18 -9 -1 23 -25 41 -28 43
-22 12z"/>
<path d="M2916 2011 c-4 -5 -2 -12 3 -15 5 -4 12 -2 15 3 4 5 2 12 -3 15 -5 4
-12 2 -15 -3z"/>
<path d="M4958 1950 c-9 -28 -13 -50 -9 -50 7 0 34 90 28 96 -2 2 -10 -19 -19
-46z"/>
<path d="M4351 1954 c-25 -42 -25 -44 -7 -44 8 0 17 15 20 34 4 19 12 37 19
39 8 4 8 6 0 6 -6 1 -20 -15 -32 -35z"/>
<path d="M580 1951 c0 -6 4 -13 10 -16 6 -3 7 1 4 9 -7 18 -14 21 -14 7z"/>
<path d="M4398 1953 c-10 -2 -18 -9 -18 -14 0 -14 16 -11 30 6 7 8 11 14 9 14
-2 -1 -12 -3 -21 -6z"/>
<path d="M4450 1950 c0 -5 10 -10 23 -10 18 0 19 2 7 10 -19 13 -30 13 -30 0z"/>
<path d="M1205 1909 c9 -17 18 -29 21 -27 6 6 -20 58 -29 58 -4 0 0 -14 8 -31z"/>
<path d="M1280 1920 c0 -5 5 -10 11 -10 5 0 7 5 4 10 -3 6 -8 10 -11 10 -2 0
-4 -4 -4 -10z"/>
<path d="M2730 1906 c0 -2 7 -7 16 -10 8 -3 12 -2 9 4 -6 10 -25 14 -25 6z"/>
<path d="M4388 1903 c-10 -2 -18 -9 -18 -14 0 -6 6 -7 13 -2 6 4 30 10 52 14
l40 6 -35 1 c-19 0 -43 -2 -52 -5z"/>
<path d="M4311 1866 c-12 -18 -21 -37 -21 -41 0 -5 -8 -17 -17 -29 -18 -20
-18 -20 8 0 15 10 24 24 22 31 -3 6 5 16 16 22 13 7 18 17 14 28 -5 12 -3 14
7 8 9 -5 11 -4 6 3 -10 17 -12 16 -35 -22z"/>
<path d="M617 1870 c3 -10 12 -25 21 -32 13 -11 12 -8 -2 20 -19 36 -27 41
-19 12z"/>
<path d="M1292 1836 c6 -14 16 -27 24 -30 8 -3 7 4 -4 25 -20 35 -36 39 -20 5z"/>
<path d="M4923 1853 c4 -3 2 -12 -4 -20 -6 -7 -8 -13 -4 -13 4 0 0 -11 -9 -25
-19 -28 -21 -39 -5 -30 10 7 19 26 33 73 5 14 3 22 -5 22 -7 0 -9 -3 -6 -7z"/>
<path d="M596 1827 c3 -10 9 -15 12 -12 3 3 0 11 -7 18 -10 9 -11 8 -5 -6z"/>
<path d="M650 1799 c0 -5 5 -7 10 -4 6 3 10 8 10 11 0 2 -4 4 -10 4 -5 0 -10
-5 -10 -11z"/>
<path d="M670 1781 c0 -5 5 -13 10 -16 6 -3 10 -2 10 4 0 5 -4 13 -10 16 -5 3
-10 2 -10 -4z"/>
<path d="M694 1736 c3 -10 15 -30 27 -45 11 -14 34 -48 50 -75 17 -26 33 -46
36 -42 4 3 -3 16 -14 29 -11 12 -28 36 -37 52 -24 43 -70 103 -62 81z"/>
<path d="M1460 1720 c0 -5 9 -14 20 -20 11 -6 20 -7 20 -3 0 5 -9 14 -20 21
-11 7 -20 8 -20 2z"/>
<path d="M4217 1712 c-12 -13 -13 -22 -6 -32 9 -13 10 -13 6 0 -2 8 2 23 11
33 20 22 10 22 -11 -1z"/>
<path d="M1290 1705 c0 -8 4 -15 10 -15 5 0 7 7 4 15 -4 8 -8 15 -10 15 -2 0
-4 -7 -4 -15z"/>
<path d="M4866 1705 c-9 -26 -7 -32 5 -12 6 10 9 21 6 23 -2 3 -7 -2 -11 -11z"/>
<path d="M4813 1598 c-18 -39 -31 -73 -30 -75 2 -1 19 27 37 65 18 37 35 70
37 75 2 4 1 7 -4 7 -4 0 -23 -32 -40 -72z"/>
<path d="M4145 1630 c-16 -16 -24 -30 -17 -30 6 0 19 11 28 25 12 19 22 24 38
20 17 -5 18 -4 6 4 -21 15 -23 14 -55 -19z"/>
<path d="M1530 1630 c0 -5 5 -10 10 -10 6 0 10 5 10 10 0 6 -4 10 -10 10 -5 0
-10 -4 -10 -10z"/>
<path d="M1380 1600 c13 -11 25 -20 28 -20 3 0 -3 9 -13 20 -10 11 -23 20 -28
20 -6 0 0 -9 13 -20z"/>
<path d="M1580 1599 c0 -5 5 -7 10 -4 6 3 10 8 10 11 0 2 -4 4 -10 4 -5 0 -10
-5 -10 -11z"/>
<path d="M4100 1580 c-8 -5 -12 -12 -9 -15 4 -3 12 1 19 10 14 17 11 19 -10 5z"/>
<path d="M815 1550 c3 -5 8 -10 11 -10 2 0 4 5 4 10 0 6 -5 10 -11 10 -5 0 -7
-4 -4 -10z"/>
<path d="M4046 1525 c-11 -8 -15 -15 -9 -15 6 0 16 7 23 15 16 19 11 19 -14 0z"/>
<path d="M4760 1510 c0 -5 5 -10 11 -10 5 0 7 5 4 10 -3 6 -8 10 -11 10 -2 0
-4 -4 -4 -10z"/>
<path d="M4098 1493 c7 -3 16 -2 19 1 4 3 -2 6 -13 5 -11 0 -14 -3 -6 -6z"/>
<path d="M880 1485 c0 -5 5 -17 10 -25 5 -8 10 -10 10 -5 0 6 -5 17 -10 25 -5
8 -10 11 -10 5z"/>
<path d="M1754 1458 c10 -16 24 -28 32 -28 7 0 18 -8 23 -17 6 -10 11 -13 11
-7 0 10 -16 25 -65 64 -18 15 -18 14 -1 -12z"/>
<path d="M910 1444 c0 -13 18 -39 24 -34 2 3 -2 14 -10 24 -8 11 -14 16 -14
10z"/>
<path d="M3950 1435 c0 -9 -4 -14 -9 -11 -11 7 -36 -22 -27 -31 3 -3 14 1 23
9 10 9 23 17 30 19 8 3 7 8 -3 17 -12 11 -14 10 -14 -3z"/>
<path d="M1497 1429 c7 -7 15 -10 18 -7 3 3 -2 9 -12 12 -14 6 -15 5 -6 -5z"/>
<path d="M1358 1403 c7 -3 16 -2 19 1 4 3 -2 6 -13 5 -11 0 -14 -3 -6 -6z"/>
<path d="M4685 1389 c-11 -16 -1 -19 13 -3 7 8 8 14 3 14 -5 0 -13 -5 -16 -11z"/>
<path d="M1420 1382 c8 -5 26 -13 40 -16 17 -5 20 -4 10 2 -8 5 -26 13 -40 16
-17 5 -20 4 -10 -2z"/>
<path d="M1880 1381 c0 -6 7 -11 15 -11 8 0 22 -17 31 -37 10 -23 18 -33 21
-24 3 7 0 17 -7 21 -7 4 -10 12 -7 17 3 5 -7 17 -24 27 -16 9 -29 12 -29 7z"/>
<path d="M1520 1351 c0 -8 50 -34 56 -29 1 2 -11 11 -27 20 -16 9 -29 14 -29
9z"/>
<path d="M3902 1344 c-7 -8 -8 -14 -3 -14 10 0 25 19 20 25 -2 1 -10 -3 -17
-11z"/>
<path d="M1870 1346 c0 -2 7 -9 15 -16 9 -7 15 -8 15 -2 0 5 -7 12 -15 16 -8
3 -15 4 -15 2z"/>
<path d="M1458 1333 c7 -3 16 -2 19 1 4 3 -2 6 -13 5 -11 0 -14 -3 -6 -6z"/>
<path d="M1968 1333 c6 -2 10 -9 6 -14 -3 -5 -2 -9 3 -8 19 5 62 -14 66 -29 4
-15 5 -15 6 0 1 16 -65 59 -86 57 -4 0 -2 -3 5 -6z"/>
<path d="M3805 1330 c-3 -5 -2 -10 4 -10 5 0 13 5 16 10 3 6 2 10 -4 10 -5 0
-13 -4 -16 -10z"/>
<path d="M1490 1318 c0 -6 3 -8 7 -5 3 4 17 0 31 -9 13 -8 26 -13 29 -11 4 5
-49 37 -62 37 -3 0 -5 -5 -5 -12z"/>
<path d="M1598 1313 c6 -2 18 -2 25 0 6 3 1 5 -13 5 -14 0 -19 -2 -12 -5z"/>
<path d="M1025 1300 c3 -5 8 -10 11 -10 2 0 4 5 4 10 0 6 -5 10 -11 10 -5 0
-7 -4 -4 -10z"/>
<path d="M1860 1301 c0 -6 1 -11 3 -11 1 0 17 -4 35 -9 17 -5 32 -6 32 -1 0 4
-8 10 -17 13 -10 2 -26 8 -35 12 -11 4 -18 3 -18 -4z"/>
<path d="M1950 1281 c0 -17 18 -21 24 -6 3 9 0 15 -9 15 -8 0 -15 -4 -15 -9z"/>
<path d="M2080 1276 c0 -2 7 -7 16 -10 8 -3 12 -2 9 4 -6 10 -25 14 -25 6z"/>
<path d="M2060 1253 c0 -13 42 -35 49 -26 3 4 4 7 2 5 -2 -1 -15 5 -28 13 -13
9 -23 12 -23 8z"/>
<path d="M1920 1240 c0 -5 7 -10 16 -10 8 0 12 5 9 10 -3 6 -10 10 -16 10 -5
0 -9 -4 -9 -10z"/>
<path d="M3773 1236 c-13 -6 -25 -16 -27 -23 -4 -10 62 17 83 34 11 8 -36 -1
-56 -11z"/>
<path d="M2135 1223 c15 -16 55 -26 55 -14 0 6 -6 11 -14 11 -8 0 -23 3 -33 6
-12 5 -15 4 -8 -3z"/>
<path d="M2221 1218 c-1 -22 18 -33 32 -19 8 8 7 11 -5 11 -9 0 -19 6 -21 13
-3 7 -6 6 -6 -5z"/>
<path d="M1990 1204 c0 -10 28 -34 39 -34 6 0 11 -8 12 -17 0 -11 3 -13 6 -5
2 7 -6 23 -19 37 -22 24 -38 32 -38 19z"/>
<path d="M3784 1194 c-18 -14 -18 -15 4 -4 12 6 22 13 22 15 0 8 -5 6 -26 -11z"/>
<path d="M4522 1179 c-19 -17 -31 -33 -28 -36 5 -5 13 2 50 45 27 31 17 27
-22 -9z"/>
<path d="M1145 1180 c21 -24 26 -25 19 -6 -3 8 -13 17 -22 21 -13 5 -13 2 3
-15z"/>
<path d="M2300 1190 c8 -5 22 -9 30 -9 10 0 8 3 -5 9 -27 12 -43 12 -25 0z"/>
<path d="M3490 1190 c-18 -12 -2 -12 25 0 13 6 15 9 5 9 -8 0 -22 -4 -30 -9z"/>
<path d="M3445 1170 c3 -5 10 -10 16 -10 5 0 9 5 9 10 0 6 -7 10 -16 10 -8 0
-12 -4 -9 -10z"/>
<path d="M3520 1170 c-9 -6 -10 -10 -3 -10 6 0 15 5 18 10 8 12 4 12 -15 0z"/>
<path d="M2150 1166 c0 -2 7 -7 16 -10 8 -3 12 -2 9 4 -6 10 -25 14 -25 6z"/>
<path d="M3406 1162 c-3 -4 4 -9 15 -9 23 -2 25 3 4 10 -8 4 -16 3 -19 -1z"/>
<path d="M1181 1147 c2 -1 14 -11 27 -21 12 -11 22 -16 22 -13 0 10 -31 37
-42 37 -6 0 -9 -1 -7 -3z"/>
<path d="M2468 1143 c7 -3 16 -2 19 1 4 3 -2 6 -13 5 -11 0 -14 -3 -6 -6z"/>
<path d="M2188 1133 c6 -2 18 -2 25 0 6 3 1 5 -13 5 -14 0 -19 -2 -12 -5z"/>
<path d="M3233 1115 c0 -11 4 -12 14 -4 7 6 13 13 13 15 0 2 -6 4 -13 4 -8 0
-14 -7 -14 -15z"/>
<path d="M4460 1115 c-8 -9 -8 -15 -2 -15 12 0 26 19 19 26 -2 2 -10 -2 -17
-11z"/>
<path d="M2633 1113 c9 -2 23 -2 30 0 6 3 -1 5 -18 5 -16 0 -22 -2 -12 -5z"/>
<path d="M2198 1088 c5 -5 16 -8 23 -6 8 3 3 7 -10 11 -17 4 -21 3 -13 -5z"/>
<path d="M2364 1085 c23 -18 46 -19 46 -4 0 6 -7 9 -15 6 -8 -4 -17 -2 -20 3
-4 6 -12 10 -18 10 -7 0 -3 -7 7 -15z"/>
<path d="M2798 1093 c6 -2 18 -2 25 0 6 3 1 5 -13 5 -14 0 -19 -2 -12 -5z"/>
<path d="M4417 1070 c-16 -20 -12 -27 8 -12 9 6 19 32 12 32 -1 0 -10 -9 -20
-20z"/>
<path d="M2505 1070 c3 -5 8 -10 11 -10 2 0 4 5 4 10 0 6 -5 10 -11 10 -5 0
-7 -4 -4 -10z"/>
<path d="M2858 1058 c6 -6 18 -8 28 -6 14 3 12 5 -9 10 -19 3 -25 2 -19 -4z"/>
<path d="M2627 1039 c7 -7 15 -10 18 -7 3 3 -2 9 -12 12 -14 6 -15 5 -6 -5z"/>
<path d="M2689 1016 c14 -8 32 -11 40 -8 12 5 10 8 -9 13 -42 12 -56 9 -31 -5z"/>
<path d="M2880 1010 c0 -5 5 -10 11 -10 5 0 7 5 4 10 -3 6 -8 10 -11 10 -2 0
-4 -4 -4 -10z"/>
<path d="M1420 948 c14 -13 39 -29 55 -36 27 -11 28 -11 10 2 -11 9 -25 19
-31 23 -5 4 -21 14 -35 21 l-24 14 25 -24z"/>
<path d="M4291 953 c-7 -8 -11 -16 -8 -19 2 -2 10 2 17 11 17 20 9 27 -9 8z"/>
<path d="M4199 883 c-13 -17 -13 -17 6 -3 11 8 22 16 24 17 2 2 0 3 -6 3 -6 0
-17 -8 -24 -17z"/>
<path d="M3428 873 c6 -2 18 -2 25 0 6 3 1 5 -13 5 -14 0 -19 -2 -12 -5z"/>
<path d="M4150 855 c-7 -9 -8 -15 -2 -15 5 0 12 7 16 15 3 8 4 15 2 15 -2 0
-9 -7 -16 -15z"/>
<path d="M1586 840 c12 -13 27 -21 33 -19 6 2 -4 12 -22 22 l-32 18 21 -21z"/>
<path d="M1641 806 c2 -2 15 -9 29 -15 24 -11 24 -11 6 3 -16 13 -49 24 -35
12z"/>
<path d="M2618 793 c6 -2 18 -2 25 0 6 3 1 5 -13 5 -14 0 -19 -2 -12 -5z"/>
<path d="M1780 735 c7 -8 17 -15 22 -15 6 0 5 7 -2 15 -7 8 -17 15 -22 15 -6
0 -5 -7 2 -15z"/>
<path d="M3945 740 c-3 -5 1 -10 9 -10 8 0 18 5 21 10 3 6 -1 10 -9 10 -8 0
-18 -4 -21 -10z"/>
<path d="M1824 711 c3 -5 20 -14 38 -20 38 -13 26 0 -15 17 -16 7 -26 8 -23 3z"/>
<path d="M1908 673 c7 -3 16 -2 19 1 4 3 -2 6 -13 5 -11 0 -14 -3 -6 -6z"/>
<path d="M3820 670 c-9 -6 -10 -10 -3 -10 6 0 15 5 18 10 8 12 4 12 -15 0z"/>
<path d="M1980 646 c0 -2 7 -7 16 -10 8 -3 12 -2 9 4 -6 10 -25 14 -25 6z"/>
<path d="M2090 606 c0 -2 7 -7 16 -10 8 -3 12 -2 9 4 -6 10 -25 14 -25 6z"/>
<path d="M3456 551 c-4 -5 3 -7 14 -4 23 6 26 13 6 13 -8 0 -17 -4 -20 -9z"/>
<path d="M2298 543 c6 -2 18 -2 25 0 6 3 1 5 -13 5 -14 0 -19 -2 -12 -5z"/>
<path d="M2348 533 c7 -3 16 -2 19 1 4 3 -2 6 -13 5 -11 0 -14 -3 -6 -6z"/>
<path d="M2420 520 c0 -5 5 -10 11 -10 5 0 7 5 4 10 -3 6 -8 10 -11 10 -2 0
-4 -4 -4 -10z"/>
<path d="M2475 510 c19 -8 73 -14 64 -6 -2 2 -22 6 -44 9 -28 5 -34 4 -20 -3z"/>
<path d="M3318 513 c7 -3 16 -2 19 1 4 3 -2 6 -13 5 -11 0 -14 -3 -6 -6z"/>
<path d="M2588 493 c6 -2 18 -2 25 0 6 3 1 5 -13 5 -14 0 -19 -2 -12 -5z"/>
<path d="M3166 489 c4 -7 44 0 44 7 0 2 -11 3 -24 2 -14 -1 -23 -5 -20 -9z"/>
<path d="M2683 483 c9 -2 23 -2 30 0 6 3 -1 5 -18 5 -16 0 -22 -2 -12 -5z"/>
<path d="M2817 478 c-16 -10 80 -8 113 1 17 6 4 8 -38 7 -35 -1 -69 -4 -75 -8z"/>
<path d="M3023 483 c9 -2 23 -2 30 0 6 3 -1 5 -18 5 -16 0 -22 -2 -12 -5z"/>
<path d="M3078 483 c7 -3 16 -2 19 1 4 3 -2 6 -13 5 -11 0 -14 -3 -6 -6z"/>
<path d="M3388 483 c6 -2 18 -2 25 0 6 3 1 5 -13 5 -14 0 -19 -2 -12 -5z"/>
<path d="M2778 473 c7 -3 16 -2 19 1 4 3 -2 6 -13 5 -11 0 -14 -3 -6 -6z"/>
<path d="M2508 463 c7 -3 16 -2 19 1 4 3 -2 6 -13 5 -11 0 -14 -3 -6 -6z"/>
</g>
</svg>
