<?xml version="1.0" standalone="no"?>
<!DOCTYPE svg PUBLIC "-//W3C//DTD SVG 20010904//EN"
 "http://www.w3.org/TR/2001/REC-SVG-20010904/DTD/svg10.dtd">
<svg version="1.0" xmlns="http://www.w3.org/2000/svg"
 width="1158.000000pt" height="1158.000000pt" viewBox="0 0 1158.000000 1158.000000"
 preserveAspectRatio="xMidYMid meet">

<g transform="translate(0.000000,1158.000000) scale(0.100000,-0.100000)"
fill="#000000" stroke="none">
<path d="M0 5790 l0 -5790 5790 0 5790 0 0 5790 0 5790 -5790 0 -5790 0 0
-5790z m5710 5393 c-74 -2 -144 -7 -155 -12 -82 -36 -115 -40 -115 -16 0 8 12
17 28 21 15 3 32 7 37 9 6 2 84 3 175 2 163 -1 163 -1 30 -4z m-583 -29 c-3
-3 -12 -4 -19 -1 -8 3 -5 6 6 6 11 1 17 -2 13 -5z m277 -79 c-6 -16 -34 -21
-34 -7 0 13 11 22 26 22 8 0 11 -6 8 -15z m-204 -31 c0 -8 -4 -12 -10 -9 -5 3
-10 10 -10 16 0 5 5 9 10 9 6 0 10 -7 10 -16z m106 -11 c-10 -10 -19 5 -10 18
6 11 8 11 12 0 2 -7 1 -15 -2 -18z m658 1 c4 -10 1 -14 -6 -12 -15 5 -23 28
-10 28 5 0 13 -7 16 -16z m686 -14 c0 -5 -13 -10 -30 -10 -16 0 -30 5 -30 10
0 6 14 10 30 10 17 0 30 -4 30 -10z m-1515 -10 c-3 -5 -10 -10 -16 -10 -5 0
-9 5 -9 10 0 6 7 10 16 10 8 0 12 -4 9 -10z m200 -20 c-3 -5 -11 -10 -16 -10
-6 0 -7 5 -4 10 3 6 11 10 16 10 6 0 7 -4 4 -10z m745 1 c0 -12 -28 -22 -34
-12 -3 5 -3 11 1 15 9 9 33 7 33 -3z m515 -11 c-3 -5 -11 -10 -16 -10 -6 0 -7
5 -4 10 3 6 11 10 16 10 6 0 7 -4 4 -10z m-1881 -63 c-59 -34 -104 -57 -104
-52 0 12 85 65 104 65 l21 0 -21 -13z m2546 -32 c0 -8 -7 -15 -15 -15 -16 0
-20 12 -8 23 11 12 23 8 23 -8z m-2455 -4 c-6 -5 -32 -12 -60 -15 -49 -6 -50
-6 -20 9 33 16 95 21 80 6z m2585 -21 c0 -5 -4 -10 -9 -10 -6 0 -13 5 -16 10
-3 6 1 10 9 10 9 0 16 -4 16 -10z m-3115 -10 c-3 -5 -16 -10 -28 -10 -18 0
-19 2 -7 10 20 13 43 13 35 0z m2895 0 c0 -5 -7 -10 -16 -10 -8 0 -12 5 -9 10
3 6 10 10 16 10 5 0 9 -4 9 -10z m-2360 -20 c-8 -5 -24 -9 -35 -9 -16 1 -16 2
5 9 35 11 48 11 30 0z m-586 -15 c-6 -16 -34 -21 -34 -7 0 13 11 22 26 22 8 0
11 -6 8 -15z m3366 -26 c17 -30 11 -34 -15 -9 -14 13 -25 27 -25 31 0 14 30
-2 40 -22z m-3430 7 c0 -11 -19 -15 -25 -6 -3 5 1 10 9 10 9 0 16 -2 16 -4z
m345 -7 c4 -6 17 -14 29 -19 20 -8 19 -9 -6 -9 -15 -1 -30 4 -33 10 -4 6 -17
14 -29 19 -20 8 -19 9 6 9 15 1 30 -4 33 -10z m3225 -71 c1 -13 16 -52 35 -88
34 -64 39 -91 10 -54 -9 10 -27 42 -40 69 -14 28 -32 60 -41 73 -16 21 -16 22
10 22 20 0 26 -5 26 -22z m117 -34 c-7 -7 -37 7 -37 17 0 6 9 5 21 -1 11 -7
19 -14 16 -16z m-3950 -20 c-3 -3 -12 -4 -19 -1 -8 3 -5 6 6 6 11 1 17 -2 13
-5z m-57 -83 c0 -12 -20 -25 -27 -18 -7 7 6 27 18 27 5 0 9 -4 9 -9z m-285
-160 c-16 -10 -50 -21 -75 -24 l-45 -6 52 17 c28 9 55 20 59 25 4 4 14 7 23 7
10 0 4 -8 -14 -19z m-220 -31 c-10 -17 -96 -72 -102 -66 -4 3 -4 7 -2 9 2 2
20 14 39 28 29 22 51 34 68 38 2 1 0 -3 -3 -9z m2650 -1460 c-11 -5 -49 -8
-85 -8 -50 0 -58 2 -35 8 43 11 146 11 120 0z m153 3 c-16 -2 -40 -2 -55 0
-16 2 -3 4 27 4 30 0 43 -2 28 -4z m267 -3 c28 -6 9 -7 -60 -3 -55 3 -102 7
-104 9 -8 8 125 3 164 -6z m-585 -10 c0 -5 -4 -10 -9 -10 -6 0 -13 5 -16 10
-3 6 1 10 9 10 9 0 16 -4 16 -10z m704 1 c3 -5 -12 -8 -34 -7 -22 0 -40 4 -40
8 0 11 68 10 74 -1z m-879 -27 c-38 -8 -130 -28 -203 -45 -73 -17 -136 -29
-139 -26 -3 3 8 9 23 12 16 4 40 11 54 17 14 6 59 17 100 25 41 8 93 18 115
22 22 5 58 9 80 9 32 0 26 -3 -30 -14z m1200 -13 c44 -10 127 -33 185 -50 58
-17 114 -31 124 -31 26 0 136 -41 136 -50 0 -4 -33 1 -72 12 -40 11 -96 26
-125 33 -28 7 -57 16 -63 20 -7 4 -58 16 -114 26 -109 19 -172 32 -281 54
l-70 15 100 -5 c55 -3 136 -14 180 -24z m-510 -34 c58 -5 92 -9 124 -16 2 -1
-2 -8 -10 -17 -8 -9 -25 -14 -45 -12 -46 4 -51 -7 -10 -26 39 -18 56 -20 56
-6 0 6 14 10 30 10 23 0 30 4 30 20 0 18 7 20 65 20 36 0 85 -5 109 -12 37
-10 45 -17 50 -40 5 -27 36 -41 36 -16 0 6 8 4 19 -6 16 -15 20 -15 31 -1 7 8
16 12 21 9 5 -3 9 -1 9 5 0 5 -6 12 -12 14 -8 3 -5 6 5 6 30 2 54 -17 87 -64
26 -38 29 -46 16 -51 -27 -10 -49 4 -43 28 6 20 5 20 -11 3 -13 -13 -14 -19
-4 -22 17 -6 15 -23 -3 -37 -14 -10 -14 -15 0 -44 13 -26 22 -32 48 -32 22 0
28 -3 20 -11 -15 -15 -80 -14 -98 1 -8 6 -23 9 -35 5 -22 -7 -31 7 -34 55 -1
16 -5 32 -9 36 -4 4 -7 22 -7 41 0 18 -3 33 -8 33 -13 0 -32 -39 -22 -45 13
-8 0 -35 -17 -35 -10 0 -14 7 -10 20 6 24 -1 25 -24 4 -25 -23 -70 -10 -94 26
-13 19 -29 30 -44 30 -20 0 -23 -4 -19 -30 4 -29 -5 -40 -16 -21 -3 5 -26 12
-52 16 -43 6 -45 8 -40 33 6 26 6 26 -9 8 -18 -24 -19 -43 -2 -49 6 -2 0 -6
-15 -9 -35 -7 -58 6 -40 24 16 16 15 48 -2 48 -8 0 -25 -13 -38 -29 -25 -31
-60 -40 -114 -27 -23 5 -43 0 -83 -19 -40 -20 -59 -25 -79 -19 l-27 8 32 4
c22 2 40 14 58 38 29 38 24 43 -19 15 -36 -24 -54 -17 -29 11 18 20 17 20 -7
17 -19 -3 -25 -10 -25 -29 0 -21 -7 -27 -43 -35 -31 -8 -39 -14 -31 -22 8 -8
3 -13 -19 -18 -17 -3 -33 -13 -36 -21 -7 -18 -36 -18 -36 0 0 8 8 17 18 19 9
3 -17 5 -59 6 -64 1 -79 -2 -94 -19 -18 -19 -17 -20 2 -20 10 0 28 7 39 15 24
18 44 19 44 1 0 -8 -15 -17 -34 -20 -19 -4 -37 -13 -40 -21 -7 -19 -32 -19
-40 0 -3 8 -15 15 -26 15 -11 0 -23 6 -26 14 -3 8 -17 17 -32 21 l-26 6 28 24
c16 14 37 27 47 30 11 4 19 11 19 16 0 11 -38 2 -57 -13 -7 -5 -17 -7 -23 -3
-5 3 -26 -11 -46 -32 -34 -36 -37 -37 -49 -19 -9 12 -20 16 -32 12 -17 -7 -17
-8 0 -20 26 -20 21 -29 -13 -23 -38 8 -46 -6 -18 -32 l22 -21 -26 0 c-15 0
-35 -3 -45 -7 -17 -6 -17 -6 0 14 17 20 17 20 -10 15 -15 -2 -36 -13 -46 -23
-19 -20 -32 -21 -82 -10 -30 7 -30 7 12 15 24 4 46 13 49 18 5 7 -2 9 -21 4
-24 -6 -27 -5 -22 13 3 12 1 21 -4 21 -5 0 -9 -8 -9 -19 0 -14 -10 -20 -37
-25 -83 -13 -93 1 -24 32 l36 17 -37 3 c-35 3 -49 14 -30 25 4 2 0 2 -8 -1 -8
-2 -28 -7 -44 -11 -16 -4 -31 -12 -34 -19 -4 -14 12 -16 37 -3 10 6 23 6 31 1
11 -7 9 -11 -10 -18 -14 -6 -41 -26 -59 -46 -19 -20 -42 -36 -52 -36 -27 0
-44 -27 -29 -45 10 -12 16 -13 27 -3 11 9 16 9 24 -3 14 -23 10 -30 -15 -23
-25 6 -40 -14 -30 -40 3 -8 -7 -18 -28 -26 -18 -8 -45 -22 -60 -32 -14 -10
-39 -18 -55 -18 -15 0 -44 -4 -62 -10 -19 -5 -37 -8 -39 -5 -11 10 23 36 61
46 61 16 113 54 126 90 13 37 7 51 -17 42 -31 -11 -52 -36 -47 -54 5 -15 -4
-21 -52 -35 -75 -22 -295 -135 -345 -178 -21 -19 -49 -34 -61 -34 -12 1 -38
-3 -57 -7 l-35 -8 28 23 c15 12 26 24 24 26 -11 11 -120 -52 -161 -92 -30 -31
-51 -44 -61 -40 -32 12 -133 -52 -107 -68 5 -3 7 -18 5 -33 -3 -19 -37 -59
-106 -126 -85 -81 -104 -95 -113 -82 -6 8 -21 15 -33 15 -22 0 -28 -14 -11
-25 17 -10 0 -26 -23 -23 -19 3 -22 -2 -22 -29 0 -27 -3 -31 -20 -27 -21 5
-54 -22 -59 -48 -9 -52 -19 -78 -29 -78 -18 -1 -57 -36 -57 -52 -1 -15 -70
-87 -70 -72 0 5 20 42 45 82 158 253 404 512 680 713 97 71 241 169 249 169 2
0 47 24 100 54 254 144 557 258 851 322 161 34 368 65 480 70 66 3 121 7 122
8 3 3 219 -2 288 -7z m-1070 -37 c-3 -5 -18 -10 -33 -9 l-27 1 25 8 c35 11 42
11 35 0z m-155 -46 c-54 -17 -50 -16 -50 -5 0 10 29 18 70 19 16 0 9 -4 -20
-14z m-75 -23 c-3 -5 -31 -19 -63 -31 -31 -12 -62 -26 -68 -31 -6 -5 -40 -20
-75 -33 -71 -27 -176 -72 -199 -87 -8 -5 -37 -21 -65 -35 -64 -32 -130 -70
-178 -102 -20 -14 -40 -23 -43 -20 -9 9 165 116 276 170 205 99 265 126 300
137 19 7 46 18 60 26 28 16 64 20 55 6z m2031 -19 c48 -20 90 -66 137 -149 23
-40 32 -65 26 -74 -5 -8 -9 -11 -9 -6 0 4 0 9 0 12 0 3 -9 14 -21 26 -15 15
-24 18 -32 10 -19 -19 -23 -12 -19 30 3 29 1 40 -7 35 -7 -4 -9 -1 -5 7 7 18
-45 59 -103 82 -24 10 -43 23 -43 31 0 18 25 17 76 -4z m190 -62 c32 -11 68
-24 79 -29 11 -5 52 -20 90 -34 161 -59 234 -90 285 -119 54 -31 55 -49 2 -30
-15 5 -36 6 -47 2 -13 -5 -26 -2 -38 9 -17 14 -20 14 -30 0 -7 -9 -16 -15 -22
-13 -5 1 -23 5 -39 9 -20 4 -26 9 -18 14 19 11 -4 27 -60 42 -41 11 -50 11
-65 -3 -12 -10 -29 -14 -50 -11 -26 4 -33 2 -33 -11 0 -46 -43 8 -54 67 -4 21
-16 47 -27 58 -10 10 -19 26 -19 34 0 7 -8 19 -17 24 -29 17 -1 13 63 -9z
m-976 -29 c0 -6 -5 -13 -10 -16 -15 -9 -43 3 -35 15 8 13 45 13 45 1z m-100
-11 c0 -5 -7 -10 -16 -10 -8 0 -12 5 -9 10 3 6 10 10 16 10 5 0 9 -4 9 -10z
m778 -8 c2 -7 -7 -12 -22 -12 -27 0 -35 15 -13 23 17 7 30 3 35 -11z m87 8 c3
-5 1 -10 -4 -10 -6 0 -11 5 -11 10 0 6 2 10 4 10 3 0 8 -4 11 -10z m-368 -15
c8 -23 -3 -29 -26 -13 -21 15 -18 28 6 28 7 0 16 -7 20 -15z m-597 -5 c0 -5
-2 -10 -4 -10 -3 0 -8 5 -11 10 -3 6 -1 10 4 10 6 0 11 -4 11 -10z m1694 -45
c15 -10 25 -20 22 -22 -6 -6 -92 32 -100 45 -9 15 44 -1 78 -23z m-2634 -5 c0
-5 -5 -10 -11 -10 -5 0 -7 5 -4 10 3 6 8 10 11 10 2 0 4 -4 4 -10z m1015 -1
c10 -15 -1 -23 -20 -15 -9 3 -13 10 -10 16 8 13 22 13 30 -1z m115 -9 c-8 -5
-17 -7 -19 -4 -3 3 1 9 9 14 8 5 17 7 19 4 3 -3 -1 -9 -9 -14z m88 11 c10 -6
5 -11 -19 -20 -42 -15 -50 -14 -43 3 5 13 17 19 44 25 3 0 11 -3 18 -8z m-555
-8 c-7 -2 -19 -2 -25 0 -7 3 -2 5 12 5 14 0 19 -2 13 -5z m1207 -13 c0 -5 -5
-10 -11 -10 -5 0 -7 5 -4 10 3 6 8 10 11 10 2 0 4 -4 4 -10z m40 0 c0 -5 -4
-10 -10 -10 -5 0 -10 5 -10 10 0 6 5 10 10 10 6 0 10 -4 10 -10z m-190 -4 c0
-3 -4 -8 -10 -11 -5 -3 -10 -1 -10 4 0 6 5 11 10 11 6 0 10 -2 10 -4z m990
-24 c-7 -3 -19 3 -28 13 -16 15 -15 16 12 4 15 -7 23 -15 16 -17z m-2730 4 c0
-3 -4 -8 -10 -11 -5 -3 -10 -1 -10 4 0 6 5 11 10 11 6 0 10 -2 10 -4z m127 -2
c-3 -3 -12 -4 -19 -1 -8 3 -5 6 6 6 11 1 17 -2 13 -5z m2669 -29 c18 -13 18
-14 -4 -8 -12 3 -25 9 -28 14 -8 14 10 11 32 -6z m64 -35 c8 -5 12 -11 10 -14
-3 -2 -14 2 -24 10 -22 15 -10 19 14 4z m-395 -31 c-8 -12 -35 -12 -35 0 0 11
22 20 33 14 4 -2 5 -9 2 -14z m-3265 -29 c0 -5 -5 -10 -10 -10 -6 0 -35 -20
-65 -45 -62 -50 -99 -73 -94 -56 3 8 157 120 167 121 1 0 2 -4 2 -10z m745 0
c-3 -5 -10 -10 -16 -10 -5 0 -9 5 -9 10 0 6 7 10 16 10 8 0 12 -4 9 -10z
m2575 -21 c0 -6 -4 -7 -10 -4 -5 3 -10 11 -10 16 0 6 5 7 10 4 6 -3 10 -11 10
-16z m108 -16 c-10 -2 -28 -2 -40 0 -13 2 -5 4 17 4 22 1 32 -1 23 -4z m315
-66 c125 -86 187 -133 187 -139 0 -16 -27 -7 -46 13 -23 26 -67 49 -92 49 -10
0 -27 9 -38 21 -10 11 -39 29 -65 41 -46 19 -65 40 -54 58 8 13 54 -6 108 -43z
m-3313 28 c0 -2 -12 -11 -27 -19 -16 -8 -47 -33 -70 -55 -23 -23 -46 -41 -51
-41 -5 0 -19 -9 -32 -20 -26 -23 -43 -22 -48 2 -4 20 43 56 133 102 65 33 95
43 95 31z m-686 -113 c-17 -15 -59 -52 -94 -82 -35 -30 -70 -62 -79 -70 -9 -9
-24 -22 -34 -29 -15 -12 -17 -12 -12 1 4 9 25 31 48 49 23 18 48 41 54 50 14
19 131 109 141 109 4 0 -7 -13 -24 -28z m422 -44 c4 -5 -6 -9 -22 -9 -55 -3
-99 -8 -131 -14 -34 -7 -37 -6 -28 17 4 9 29 13 89 13 46 0 88 -3 92 -7z m111
-4 c-3 -3 -12 -4 -19 -1 -8 3 -5 6 6 6 11 1 17 -2 13 -5z m3790 -110 c18 -16
21 -22 8 -15 -32 15 -61 40 -48 41 7 0 25 -12 40 -26z m-4317 -141 c0 -10 -71
-73 -82 -73 -15 0 -8 13 25 46 30 31 57 43 57 27z m-349 -26 c-10 -9 -11 -8
-5 6 3 10 9 15 12 12 3 -3 0 -11 -7 -18z m-177 -229 c-19 -36 -84 -125 -84
-114 0 4 8 19 18 34 11 15 31 46 46 70 31 50 44 56 20 10z m-249 -448 c-23
-44 -28 -33 -7 14 9 20 18 33 20 27 2 -5 -4 -24 -13 -41z m1329 -292 c-4 -7
-15 -24 -25 -38 -75 -112 -105 -161 -139 -229 -22 -44 -40 -83 -40 -87 0 -4
-12 -36 -26 -72 -83 -209 -112 -466 -80 -723 25 -198 62 -319 154 -504 95
-191 210 -318 412 -455 168 -114 408 -183 629 -181 178 2 268 21 426 89 452
196 633 737 345 1029 -58 59 -123 85 -210 85 -79 -1 -90 -12 -88 -85 2 -91
-34 -187 -71 -187 -10 0 -30 -14 -46 -30 -46 -48 -107 -79 -170 -86 -46 -6
-57 -4 -53 6 5 15 18 24 68 44 33 13 31 13 -47 9 -70 -3 -89 -1 -142 21 -33
15 -66 26 -74 26 -7 0 -32 16 -55 35 -33 29 -46 34 -68 29 -24 -6 -26 -5 -19
16 5 17 4 21 -6 18 -21 -8 -43 7 -73 51 -29 41 -29 71 -1 71 13 0 14 3 3 23
-21 36 -22 49 -16 205 1 56 2 102 1 102 -8 0 -43 -93 -43 -117 0 -18 -6 -33
-15 -36 -21 -9 -27 7 -15 39 6 16 9 39 5 51 -10 42 89 243 153 311 15 16 40
45 55 65 28 38 110 98 184 135 143 73 357 108 565 93 141 -11 220 -29 333 -79
39 -16 93 -37 121 -45 65 -19 164 -70 144 -74 -9 -2 -47 12 -85 30 -67 33
-247 77 -313 77 -16 0 -32 3 -36 7 -18 18 -99 34 -198 39 -148 9 -141 -10 10
-26 64 -6 130 -16 146 -21 16 -5 43 -9 60 -9 17 0 54 -11 82 -24 28 -13 77
-31 110 -41 76 -22 166 -67 234 -118 73 -54 160 -146 160 -169 0 -10 7 -18 16
-18 17 0 134 -119 134 -137 0 -6 5 -13 10 -15 15 -5 23 -70 11 -88 -9 -13 -13
-12 -26 7 -12 17 -21 20 -38 14 -36 -13 -27 -36 16 -39 28 -2 37 -8 37 -22 0
-10 14 -32 30 -48 17 -17 30 -33 30 -37 0 -3 -14 -28 -32 -55 -28 -43 -37 -49
-77 -55 -25 -4 -40 -10 -33 -12 18 -7 15 -24 -13 -78 -14 -26 -24 -50 -21 -53
11 -10 -15 -42 -34 -42 -11 0 -25 -9 -32 -20 -7 -11 -18 -20 -25 -20 -20 0
-33 -35 -33 -85 0 -37 3 -46 14 -42 10 4 13 1 9 -9 -3 -7 -13 -14 -22 -14 -10
0 -24 -12 -31 -26 -10 -17 -20 -24 -33 -20 -30 8 -47 -4 -47 -33 0 -21 -10
-31 -55 -55 -30 -17 -53 -31 -51 -33 4 -5 96 17 117 27 9 5 38 11 65 15 27 3
64 8 82 11 23 4 32 1 32 -9 0 -9 -25 -20 -67 -31 -38 -9 -83 -25 -102 -34 -31
-15 -32 -17 -13 -20 12 -2 22 -7 22 -12 0 -5 3 -15 6 -23 4 -11 -5 -17 -35
-22 -23 -4 -45 -14 -50 -23 -5 -9 -17 -17 -27 -17 -12 0 -21 -12 -26 -34 -8
-30 -12 -33 -39 -27 l-29 6 15 -30 c9 -17 22 -30 30 -30 20 0 19 -29 -2 -52
-13 -14 -14 -21 -5 -27 8 -4 2 -13 -18 -25 -38 -22 -29 -40 16 -33 44 7 43 -9
-1 -30 -34 -16 -46 -45 -25 -58 36 -22 -33 -32 -105 -16 -29 7 -28 8 28 26 31
10 57 22 57 27 0 17 -31 20 -48 5 -10 -9 -35 -22 -56 -29 -49 -16 -53 -26 -21
-60 14 -15 25 -29 25 -30 0 -2 -18 -2 -40 0 -41 4 -86 -20 -74 -39 3 -5 -5
-13 -18 -18 -33 -12 -62 -47 -54 -66 8 -21 -49 -55 -94 -55 -22 -1 -45 -9 -62
-25 -28 -24 -40 -48 -14 -26 21 17 70 10 74 -11 4 -23 -50 -38 -125 -33 -51 3
-64 0 -79 -16 -13 -15 -25 -18 -50 -13 -28 5 -33 3 -36 -17 -2 -16 -12 -25
-35 -31 -18 -5 -33 -13 -33 -19 0 -6 -7 -6 -20 1 -11 6 -17 16 -14 25 10 25
-80 20 -97 -5 -12 -17 -20 -18 -59 -10 -25 5 -62 11 -83 15 -24 4 -47 17 -64
36 -26 29 -56 38 -68 20 -3 -5 4 -12 15 -16 11 -4 27 -19 35 -35 14 -27 14
-30 -2 -39 -37 -19 -103 -17 -103 3 0 21 -17 29 -36 18 -28 -15 -81 7 -95 39
-6 16 -18 29 -26 29 -8 0 -25 12 -38 28 -23 27 -23 27 -54 9 -31 -18 -31 -18
-55 7 -18 20 -33 26 -65 26 -34 0 -41 3 -41 20 0 15 -7 20 -24 20 -14 0 -28 5
-32 11 -4 7 -20 9 -39 6 -24 -4 -35 -1 -39 9 -3 8 -11 14 -19 14 -16 0 -117
99 -117 115 0 7 -9 20 -21 31 -11 10 -32 42 -46 70 -37 76 -78 110 -138 117
-28 3 -51 6 -52 6 -2 1 -9 17 -17 36 -8 19 -22 38 -31 41 -8 3 -15 12 -15 19
0 7 -10 19 -21 27 -19 12 -20 17 -10 36 10 19 9 22 -7 22 -27 0 -57 38 -54 67
4 31 -26 67 -43 53 -9 -8 -14 -6 -19 5 -3 8 0 15 6 15 16 0 58 41 58 56 0 7
-9 18 -20 24 -11 6 -20 18 -20 26 0 27 -41 77 -53 65 -7 -7 -2 -23 16 -50 28
-42 33 -66 18 -90 -8 -12 -17 -7 -49 26 -32 33 -40 48 -40 78 0 24 -8 45 -21
59 -30 32 -47 96 -29 107 7 5 14 4 16 -1 2 -6 10 -10 19 -10 13 0 13 2 -1 15
-8 8 -20 15 -26 15 -6 0 -8 5 -5 10 3 6 -2 10 -12 10 -11 0 -28 6 -38 14 -17
12 -11 14 50 13 58 -1 70 2 73 15 2 12 -5 19 -22 24 -27 7 -38 44 -12 44 22 0
41 56 28 84 -6 13 -7 27 -3 32 5 5 11 26 14 47 4 27 2 37 -7 37 -10 0 -13 15
-12 54 1 48 -3 59 -28 85 l-29 30 26 10 c28 11 34 25 17 36 -16 10 -62 86 -56
92 3 3 12 0 21 -7 26 -22 45 -5 35 31 -11 38 3 71 28 67 12 -2 17 5 18 22 5
78 27 150 50 165 13 8 24 23 24 33 0 23 19 42 42 42 10 0 18 7 18 16 0 9 14
38 31 64 17 27 42 74 54 105 20 48 86 157 92 151 1 -1 -18 -42 -42 -91 -54
-111 -91 -226 -129 -405 -31 -147 -37 -243 -26 -394 17 -242 50 -383 131 -556
33 -69 59 -134 59 -143 0 -9 8 -17 17 -17 13 0 14 3 5 12 -7 7 -12 22 -12 34
0 12 -5 24 -11 26 -5 2 -12 15 -14 28 -1 14 -10 45 -19 69 -36 99 -86 292
-101 388 -20 133 -19 337 1 444 36 195 113 407 205 563 41 70 138 206 146 206
2 0 1 -6 -3 -12z m-173 -95 c-12 -20 -14 -14 -5 12 4 9 9 14 11 11 3 -2 0 -13
-6 -23z m-386 -123 c-3 -5 -34 -9 -68 -8 l-62 1 50 7 c78 11 87 11 80 0z
m2797 -357 c67 -60 109 -108 97 -112 -6 -2 -30 14 -52 36 -23 22 -59 52 -79
67 -21 15 -38 31 -38 37 0 20 32 7 72 -28z m181 -184 c4 -16 3 -18 -9 -8 -16
13 -19 29 -5 29 5 0 11 -9 14 -21z m35 -65 c-4 -3 -12 5 -18 18 -12 22 -12 22
6 6 10 -10 15 -20 12 -24z m125 -204 c3 -11 1 -18 -4 -14 -5 3 -9 12 -9 20 0
20 7 17 13 -6z m-3318 -440 l20 -9 -20 1 c-11 0 -31 4 -45 8 l-25 8 25 0 c14
0 34 -3 45 -8z m1562 4 c-3 -3 -12 -4 -19 -1 -8 3 -5 6 6 6 11 1 17 -2 13 -5z
m1237 -449 c-6 -16 -24 -21 -24 -7 0 11 11 22 21 22 5 0 6 -7 3 -15z m81 -314
c-49 -3 -100 -12 -112 -19 -27 -15 -79 -6 -64 12 6 8 54 12 138 12 118 1 121
1 38 -5z m-2198 -158 c-3 -2 -19 4 -36 15 -24 15 -28 21 -18 31 9 10 17 7 35
-15 13 -14 21 -28 19 -31z m1771 8 c11 -7 11 -9 -1 -14 -16 -6 -27 0 -27 15 0
10 11 10 28 -1z m-102 -203 c9 -9 -40 -28 -72 -28 -21 0 -33 18 -20 31 7 7 84
4 92 -3z m-1079 -134 c-3 -3 -12 -4 -19 -1 -8 3 -5 6 6 6 11 1 17 -2 13 -5z"/>
<path d="M5644 8780 c-5 -5 -38 -13 -72 -16 -34 -4 -70 -13 -80 -21 -15 -13
-9 -14 46 -8 62 6 64 6 57 -15 -6 -19 -4 -20 12 -11 11 5 25 16 32 24 6 8 25
20 41 27 16 7 27 16 24 21 -7 12 -48 11 -60 -1z"/>
<path d="M6492 8738 c-13 -13 -16 -38 -4 -38 13 1 42 27 42 39 0 15 -23 14
-38 -1z"/>
<path d="M5928 8713 c7 -3 16 -2 19 1 4 3 -2 6 -13 5 -11 0 -14 -3 -6 -6z"/>
<path d="M6804 8694 c3 -9 6 -27 6 -40 0 -28 26 -33 45 -7 10 13 8 21 -8 40
-24 26 -52 32 -43 7z"/>
<path d="M5732 8676 c-29 -12 -58 -28 -64 -34 -22 -22 -2 -21 47 3 28 13 56
25 63 25 6 0 12 7 12 15 0 8 -1 15 -2 15 -2 -1 -27 -11 -56 -24z"/>
<path d="M5810 8680 c-8 -5 -11 -12 -8 -16 10 -9 58 4 58 16 0 13 -30 13 -50
0z"/>
<path d="M4797 8439 c-3 -11 -15 -23 -26 -26 -23 -6 -29 -23 -8 -23 7 0 21 6
32 14 11 7 29 15 39 17 18 4 18 6 -6 21 -25 16 -26 16 -31 -3z"/>
<path d="M4675 8381 c-16 -3 -25 -9 -20 -13 10 -6 55 7 55 17 0 3 -1 4 -2 4
-2 -1 -16 -4 -33 -8z"/>
<path d="M4570 8325 c-7 -8 -20 -15 -30 -15 -10 0 -20 -7 -24 -15 -8 -21 24
-19 63 3 32 18 42 42 17 42 -7 0 -19 -7 -26 -15z"/>
<path d="M4004 7975 c-9 -14 -14 -29 -10 -32 8 -9 57 38 50 48 -9 15 -23 10
-40 -16z"/>
<path d="M3873 7868 c-15 -7 -23 -20 -23 -35 l0 -24 30 21 c18 13 27 26 23 35
-3 8 -6 15 -7 14 0 0 -11 -5 -23 -11z"/>
<path d="M7400 8559 c0 -5 5 -7 10 -4 6 3 10 8 10 11 0 2 -4 4 -10 4 -5 0 -10
-5 -10 -11z"/>
<path d="M5755 6550 l-30 -8 30 0 c17 0 41 4 55 8 l25 8 -25 0 c-14 0 -38 -4
-55 -8z"/>
<path d="M5227 6133 c-4 -3 -7 -13 -7 -22 1 -13 3 -13 11 2 11 19 8 33 -4 20z"/>
<path d="M6870 5952 c0 -15 24 -32 44 -32 18 0 19 1 1 20 -18 20 -45 27 -45
12z"/>
<path d="M5907 5617 c-11 -29 -9 -43 4 -30 6 6 9 19 7 29 -3 18 -4 18 -11 1z"/>
<path d="M4100 5401 c0 -6 5 -13 10 -16 6 -3 10 1 10 9 0 9 -4 16 -10 16 -5 0
-10 -4 -10 -9z"/>
<path d="M4105 5300 c3 -5 8 -10 11 -10 2 0 4 5 4 10 0 6 -5 10 -11 10 -5 0
-7 -4 -4 -10z"/>
<path d="M6520 5099 c0 -5 5 -7 10 -4 6 3 10 8 10 11 0 2 -4 4 -10 4 -5 0 -10
-5 -10 -11z"/>
<path d="M4360 4896 c0 -19 19 -31 31 -19 5 5 0 14 -11 21 -17 10 -20 10 -20
-2z"/>
<path d="M6483 4848 c-24 -31 -22 -37 6 -20 17 9 31 20 31 25 0 12 -27 8 -37
-5z"/>
<path d="M4998 4373 c7 -3 16 -2 19 1 4 3 -2 6 -13 5 -11 0 -14 -3 -6 -6z"/>
</g>
</svg>
